<svg width="32" height="32" viewBox="0 0 32 32" fill="none" xmlns="http://www.w3.org/2000/svg">
<rect width="32" height="32" fill="white"/>
<path d="M17.436 3.60937C17.436 2.99668 17.9327 2.5 18.5454 2.5H28.3905C29.0032 2.5 29.4999 2.99668 29.4999 3.60937V13.4544C29.4999 14.0671 29.0032 14.5638 28.3905 14.5638H18.5454C17.9327 14.5638 17.436 14.0671 17.436 13.4544V3.60937Z" fill="#B39F93"/>
<path d="M17.436 18.5459C17.436 17.9332 17.9327 17.4365 18.5454 17.4365H28.3905C29.0032 17.4365 29.4999 17.9332 29.4999 18.5459V28.3909C29.4999 29.0037 29.0032 29.5002 28.3905 29.5002H18.5454C17.9327 29.5002 17.436 29.0037 17.436 28.3909V18.5459Z" fill="#B39F93"/>
<path d="M3.60937 29.4999C2.99668 29.4999 2.5 29.0032 2.5 28.3906L2.5 3.60937C2.5 2.99668 2.99668 2.5 3.60937 2.5L13.4544 2.5C14.0671 2.5 14.5638 2.99668 14.5638 3.60937V28.3906C14.5638 29.0032 14.0671 29.4999 13.4544 29.4999H3.60937Z" fill="#B39F93"/>
</svg>
