<svg width="176" height="76" viewBox="0 0 176 76" fill="none" xmlns="http://www.w3.org/2000/svg">
<path fill-rule="evenodd" clip-rule="evenodd" d="M18.7897 24.1264C18.4294 24.1757 18.1523 24.3236 18.1523 24.4715C18.1523 24.5947 18.4017 24.718 18.7066 24.718C19.0114 24.718 19.3994 24.9399 19.538 25.211C19.7042 25.4822 19.8151 27.6021 19.8151 29.9439C19.8151 32.2857 19.7319 34.4549 19.6211 34.7507C19.4825 35.0958 19.1222 35.367 18.6511 35.4409C18.2354 35.4902 17.9306 35.6628 18.0137 35.8107C18.0969 35.9339 19.2054 36.0572 20.5079 36.0572C21.8104 36.0572 22.8635 35.9586 22.8635 35.86C22.8635 35.7614 22.5864 35.5642 22.2538 35.4409C21.6719 35.1944 21.6164 34.9972 21.561 32.9019L21.4779 30.6341C23.1961 30.7327 23.4732 30.9792 24.8866 32.9019C25.7734 34.1098 26.8819 35.2684 27.3808 35.5642C27.935 35.86 28.7387 36.0325 29.5147 36.0325H30.7618C29.3207 35.367 28.4893 34.7507 27.9905 34.2084C27.4916 33.6661 26.6602 32.5568 26.106 31.7434L25.136 30.2643C27.4639 28.3663 27.5748 28.1691 27.5748 27.1091C27.5748 26.2463 27.4085 25.778 26.9374 25.2603C26.5494 24.8659 25.7457 24.4468 24.9974 24.2743C24.2769 24.1017 22.725 23.9785 21.561 24.0031C20.3693 24.0278 19.1223 24.0771 18.7897 24.1264ZM21.4767 30.215V24.6687H22.7238C23.7492 24.6687 24.1372 24.8166 24.8023 25.4082C25.4951 26.0245 25.6337 26.3449 25.6337 27.3802C25.6337 28.317 25.4674 28.7607 25.024 29.229C24.5529 29.6974 23.9709 29.9192 21.4767 30.215Z" fill="#B39F93"/>
<path d="M18.2909 40.2971C18.2909 40.3957 18.5957 40.6175 18.9837 40.7901L19.6765 41.1105V51.2172C18.4017 51.6856 18.0137 51.9074 18.0137 52.006C18.0137 52.1046 19.2054 52.2032 20.6465 52.2032C22.2261 52.2032 23.2792 52.1046 23.2792 51.9567C23.2792 51.8088 22.9467 51.6363 22.531 51.5623C22.1153 51.4884 21.6719 51.2911 21.561 51.1186C21.4502 50.9707 21.3393 49.8614 21.3393 48.6782V46.5336C25.1914 46.5336 25.2191 46.5336 25.4963 47.2731C25.6625 47.6675 25.912 48.0126 26.0505 48.0126C26.2168 48.0126 26.3277 47.2238 26.3277 46.1639C26.3277 45.0792 26.2168 44.3151 26.0505 44.3151C25.912 44.3151 25.6626 44.5616 25.5517 44.8574C25.4131 45.1532 25.1083 45.4983 24.8589 45.5969C24.6095 45.6955 23.6949 45.7941 22.8635 45.7941H21.3393V40.864C24.8589 40.864 25.33 40.938 25.7734 41.357C26.0782 41.6282 26.3277 41.9979 26.3277 42.2198C26.3277 42.417 26.4662 42.5896 26.6048 42.5896C26.7711 42.5896 26.8819 42.0226 26.8819 41.357V40.1245C20.2308 40.1245 18.2909 40.1985 18.2909 40.2971Z" fill="#B39F93"/>
<path d="M79.4815 40.5682C79.4538 40.4696 79.62 40.3464 79.8417 40.2724C80.0634 40.1985 81.5323 40.1492 83.1396 40.1985C85.1904 40.2478 86.3543 40.371 87.0194 40.6668C87.546 40.9133 88.2111 41.431 88.4882 41.8254C88.7377 42.2444 88.9594 43.0333 88.9594 43.5756C88.9594 44.1179 88.7654 44.882 88.5437 45.3011C88.2943 45.7448 87.6568 46.2132 86.964 46.509C86.2989 46.7801 85.4398 47.002 85.0241 47.002C84.6084 47.002 84.2481 46.928 84.2758 46.8294C84.2758 46.7308 84.8024 46.435 85.4398 46.1639C86.3543 45.7695 86.6869 45.449 86.964 44.6848C87.2411 43.9207 87.2689 43.4523 87.0472 42.7621C86.8809 42.2444 86.4098 41.6035 85.9941 41.3324C85.5229 41.0366 84.8024 40.8394 83.1396 40.864V51.2172L83.971 51.513C84.4421 51.6856 84.8024 51.9074 84.8024 52.006C84.8024 52.1046 83.6939 52.2032 82.3082 52.2032C80.9503 52.2032 79.814 52.1046 79.814 52.006C79.814 51.9074 80.1189 51.6856 81.1997 51.2172V41.1105L80.3683 40.9133C79.8972 40.8147 79.5092 40.6668 79.4815 40.5682Z" fill="#B39F93"/>
<path d="M59.5003 27.3556C59.334 27.9965 59.2509 28.5881 59.334 28.6621C59.3895 28.7114 59.8051 28.4156 60.2763 27.9719C60.9137 27.3556 61.3571 27.183 62.0776 27.183H63.0476L63.0753 34.2084C61.7728 34.4796 61.3848 34.6768 61.3848 34.8247C61.3848 34.9726 62.4102 35.0712 63.879 35.0712C65.2646 35.0712 66.3732 34.9726 66.3732 34.874C66.3732 34.7754 66.0129 34.5535 65.5418 34.381L64.7104 34.0852V27.4295C65.902 27.183 66.5394 27.2077 66.9274 27.3309C67.3431 27.4542 67.648 27.7747 67.7034 28.0951C67.7311 28.4156 67.8697 28.6621 67.9805 28.6621C68.0914 28.6621 68.2854 28.243 68.3962 27.7254C68.5071 27.2323 68.5902 26.6407 68.5902 26.4435C68.5902 26.1477 68.5348 26.1231 68.2577 26.3696C68.0359 26.5914 66.7889 26.69 64.1007 26.69C61.7451 26.69 60.2763 26.5914 60.2763 26.4435C60.2763 26.2956 60.1654 26.197 60.0269 26.197C59.8883 26.197 59.6389 26.7147 59.5003 27.3556Z" fill="#B39F93"/>
<path d="M69.5602 27.6268C69.6987 27.0598 69.865 26.5175 69.9204 26.3942C69.9759 26.271 70.2253 26.2956 70.4747 26.3942C70.7518 26.5175 72.4978 26.6407 74.41 26.6407C76.7933 26.6654 77.985 26.5668 78.2344 26.3696C78.5392 26.1231 78.5947 26.2956 78.5947 27.3556C78.5669 28.0705 78.4838 28.6621 78.3729 28.6621C78.2621 28.6621 78.0127 28.3909 77.8187 28.0458C77.6247 27.7007 77.1813 27.3556 76.8487 27.2816C76.4885 27.2077 75.9619 27.1584 75.6571 27.2077C75.1305 27.3063 75.1028 27.5281 75.0474 30.6341C74.992 33.0005 75.0751 34.0359 75.3245 34.2824C75.5185 34.4549 75.8788 34.5782 76.1559 34.5782C76.4053 34.5782 76.5716 34.6768 76.4885 34.8247C76.4053 34.9479 75.2968 35.0712 73.9943 35.0712C72.6918 35.0712 71.6387 34.9726 71.6387 34.874C71.6387 34.7754 71.9989 34.5782 73.2183 34.2084L73.246 30.8067C73.3014 27.7747 73.246 27.4049 72.8303 27.257C72.5532 27.183 71.9435 27.183 71.4447 27.257C70.8627 27.3556 70.4193 27.6514 70.1976 28.0458C70.0036 28.3909 69.7265 28.6621 69.5602 28.6621C69.3754 28.6621 69.3754 28.317 69.5602 27.6268Z" fill="#B39F93"/>
<path fill-rule="evenodd" clip-rule="evenodd" d="M36.3044 26.8872C36.0273 27.1337 35.8056 27.4295 35.8333 27.5528C35.861 27.6761 35.2513 29.229 34.4476 30.9792C33.3391 33.3703 32.8403 34.2084 32.3691 34.3563C32.0089 34.4796 31.7317 34.6768 31.7317 34.8247C31.7317 34.9479 32.48 35.0712 33.3945 35.0712C34.3368 35.0712 35.0573 34.9479 35.0573 34.8247C35.0573 34.6768 34.8079 34.5042 34.503 34.4549C33.9765 34.3317 33.9765 34.2824 34.3645 33.2224L34.7802 32.1131L34.8024 32.114C37.8566 32.2364 37.9128 32.2386 38.3552 33.1731C38.7709 34.0852 38.7709 34.1591 38.3275 34.4056C38.078 34.5782 37.8563 34.7754 37.8563 34.874C37.8286 34.9726 38.7155 35.0712 39.7686 35.0712C40.8771 35.0712 41.7085 34.9479 41.7085 34.8247C41.7085 34.6768 41.459 34.5042 41.1542 34.4549C40.8494 34.381 40.4614 34.0605 40.2951 33.7647C40.1011 33.4689 39.3806 31.7187 38.66 29.8946C37.9395 28.0458 37.2189 26.5175 37.0804 26.4928C36.9418 26.4435 36.5815 26.6161 36.3044 26.8872ZM36.3309 28.6128L35.8321 29.7713C35.5827 30.4369 35.361 31.0285 35.361 31.1518C35.361 31.2504 35.8598 31.3243 36.4695 31.3243C37.4949 31.3243 37.5503 31.275 37.4118 30.782C37.3009 30.4615 37.0238 29.8453 36.7744 29.4016L36.3309 28.6128Z" fill="#B39F93"/>
<path d="M79.8972 26.9365C79.8417 26.8133 80.0635 26.69 80.3406 26.6407C80.6177 26.5914 82.2251 26.5914 83.8601 26.6161C86.7423 26.6654 86.8809 26.7147 87.0195 27.2323C87.1026 27.5282 87.158 27.9719 87.158 28.2184C87.158 28.4649 87.0472 28.6621 86.8809 28.6621C86.7423 28.6621 86.4929 28.3663 86.3266 28.0458C86.1881 27.7007 85.9109 27.4049 85.7169 27.4049C85.6817 27.4004 85.6374 27.3951 85.5863 27.3891C85.3557 27.3616 84.9865 27.3175 84.6915 27.257C84.3313 27.2077 83.7216 27.2077 83.3613 27.2816C82.7793 27.4049 82.7239 27.5281 82.8625 30.2643L83.8324 30.3383C84.6361 30.3876 84.9133 30.289 86.0495 29.0318V31.7927C86.0495 31.8913 85.9386 32.0145 85.7724 32.0392C85.6338 32.0638 85.4952 31.9406 85.4952 31.7434C85.4952 31.5215 85.2458 31.2504 84.941 31.1271C84.6361 30.9792 84.0541 30.9053 83.6385 30.9299C82.9733 30.9792 82.8625 31.1271 82.7793 31.8666C82.7239 32.335 82.7516 33.0745 82.8348 33.5182C82.8977 33.826 82.9368 34.0173 83.0512 34.1363C83.2391 34.3317 83.6302 34.3317 84.6638 34.3317C86.2158 34.3317 86.382 34.2577 87.0195 33.5182C87.3797 33.0745 87.7677 32.7787 87.8508 32.8526C87.9617 32.9019 87.934 33.4196 87.546 34.9479L83.4722 34.9972C80.8949 35.0465 79.3983 34.9726 79.3983 34.8247C79.3983 34.6768 79.7863 34.5042 81.0611 34.3317V30.8806C81.0611 27.6268 81.0334 27.4049 80.5069 27.3063C80.202 27.2323 79.9249 27.0598 79.8972 26.9365Z" fill="#B39F93"/>
<path d="M40.3228 26.9365C40.3228 27.0598 40.5999 27.2077 40.9325 27.2323C41.4036 27.2816 41.9025 27.8486 42.8724 29.4016C44.0087 31.2011 44.1749 31.6941 44.2027 32.9019C44.2027 34.2331 44.1472 34.3317 43.5098 34.4549C43.1218 34.5042 42.817 34.6768 42.817 34.8247C42.817 34.9479 43.787 35.0712 45.1726 35.0712C46.4751 35.0712 47.5282 34.9726 47.5282 34.874C47.5282 34.7754 47.1402 34.5535 46.6414 34.381L45.7269 34.0852C46.004 31.5462 46.3366 30.8067 47.3342 29.3276C48.3042 27.9472 48.8307 27.3802 49.3296 27.3063C49.7176 27.2323 50.0224 27.0598 50.0224 26.9365C50.0224 26.7886 49.2464 26.69 48.2211 26.69C47.1125 26.69 46.4751 26.764 46.5583 26.9365C46.6414 27.0598 46.8908 27.183 47.1125 27.183C47.3342 27.183 47.5282 27.2323 47.5282 27.3063C47.5282 27.3556 47.168 28.0951 46.6968 28.9086C46.2534 29.722 45.7546 30.4369 45.5883 30.5108C45.4497 30.5602 44.9232 29.8946 44.4243 29.0318L44.3777 28.9488C43.5367 27.4532 43.5197 27.4229 44.0641 27.0598C44.5629 26.7147 44.4521 26.69 42.4844 26.69C41.2096 26.69 40.3228 26.7886 40.3228 26.9365Z" fill="#B39F93"/>
<path d="M51.1309 27.3063C50.8261 27.2323 50.5767 27.0598 50.5767 26.9365C50.5767 26.764 51.9346 26.69 54.0408 26.69C56.8676 26.69 57.5327 26.7393 57.6435 27.0598C57.7267 27.257 57.7821 27.7007 57.7821 28.0458C57.7821 28.3663 57.6712 28.6621 57.505 28.6621C57.3664 28.6621 57.117 28.3663 56.9507 28.0458C56.7567 27.6268 56.3964 27.3802 55.7867 27.2816C55.2879 27.2077 54.5674 27.1584 54.1794 27.2077C53.542 27.2816 53.4865 27.4049 53.348 30.3876H54.4565C55.3433 30.3876 55.6759 30.2397 56.6736 29.0318V30.5602C56.6736 31.4229 56.5627 32.1131 56.3964 32.1131C56.2579 32.1131 56.1193 31.9406 56.1193 31.7434C56.1193 31.5215 55.8699 31.2504 55.565 31.1271C55.2602 30.9792 54.6782 30.9053 54.2625 30.9299C53.5697 30.9792 53.4865 31.1025 53.4034 32.1131C53.348 32.7047 53.4034 33.4689 53.4865 33.7647C53.6251 34.2577 53.7914 34.3317 55.1771 34.3317C56.5073 34.3317 56.8398 34.2331 57.5881 33.5675C58.0869 33.1484 58.5303 32.8526 58.5581 32.9019C58.6135 32.9266 58.5581 33.4196 58.1701 34.9479L54.3179 34.9972C52.184 35.0465 50.3273 34.9479 50.161 34.8247C49.9947 34.6768 50.2164 34.5535 51.6852 34.3317V30.8806C51.6852 27.6268 51.6575 27.4049 51.1309 27.3063Z" fill="#B39F93"/>
<path d="M65.1815 43.9946C64.9875 44.6355 64.9321 45.2271 65.0152 45.3011C65.1261 45.3504 65.2646 45.2518 65.3755 45.0546C65.4586 44.8327 65.7358 44.4876 66.0129 44.2411C66.29 43.9946 66.9274 43.8221 67.4817 43.8221H68.4516V50.4777C67.3708 50.6502 67.066 50.8228 67.066 50.9707C67.066 51.0939 68.0082 51.2172 69.283 51.2172C70.5856 51.2172 71.5001 51.0939 71.5001 50.9707C71.5001 50.8228 71.1953 50.6502 70.8073 50.6009L70.1144 50.4777V43.8221C71.5001 43.8221 72.0821 43.896 72.3038 43.9946C72.5255 44.0932 72.8303 44.463 72.9689 44.8081L73.246 45.4243C73.5786 44.2658 73.6617 43.6495 73.6894 43.3291C73.7172 42.8361 73.6617 42.7621 73.3846 43.0086C73.1629 43.2305 71.9989 43.3291 69.5879 43.3291C67.5648 43.3291 65.9852 43.2305 65.8189 43.0826C65.6249 42.91 65.4309 43.2058 65.1815 43.9946Z" fill="#B39F93"/>
<path d="M146.824 43.2798C149.707 43.3044 150.815 43.2305 150.981 43.0086C151.12 42.7868 151.203 42.8607 151.259 43.2058C151.314 43.477 151.231 44.0686 151.092 44.5616C150.958 45.013 150.896 45.2214 150.824 45.2249C150.762 45.2279 150.694 45.0809 150.566 44.8081C150.427 44.463 150.095 44.0932 149.845 43.9946C149.596 43.896 149.014 43.8221 147.711 43.8221V46.9527C147.711 49.1712 147.822 50.1819 148.072 50.4037C148.238 50.5763 148.626 50.7242 148.903 50.7242C149.152 50.7242 149.374 50.8228 149.374 50.9707C149.374 51.0939 148.404 51.2172 147.018 51.2172C145.633 51.2172 144.663 51.0939 144.663 50.9707C144.663 50.8228 144.94 50.6749 145.3 50.6502C145.908 50.6011 145.91 50.503 146.047 43.8887L146.048 43.8221H145.078C144.33 43.8221 143.97 43.97 142.723 45.4243L142.861 43.2305L146.824 43.2798Z" fill="#B39F93"/>
<path fill-rule="evenodd" clip-rule="evenodd" d="M30.7063 43.8221C29.7087 44.3644 29.2653 44.8081 28.9327 45.5969C28.6833 46.2378 28.5447 47.1006 28.6002 47.7661C28.6833 48.3577 28.9881 49.1959 29.3207 49.6149C29.6532 50.0093 30.3461 50.5516 30.8449 50.8228C31.4823 51.1679 32.2306 51.3158 33.3945 51.3158C34.4199 51.3158 35.4176 51.1432 35.9718 50.8967C36.4707 50.6502 37.1358 50.1079 37.4684 49.6642C37.8841 49.1466 38.1335 48.3824 38.2166 47.5196C38.2998 46.4843 38.1889 45.8927 37.7178 45.1039C37.3298 44.389 36.8032 43.896 36.0273 43.5756C35.3344 43.2551 34.3645 43.0826 33.4777 43.0826C32.3414 43.0826 31.7317 43.2305 30.7063 43.8221ZM31.3186 45.3082C31.5403 44.8892 32.0114 44.3961 32.3717 44.1743C32.7042 43.9771 33.2585 43.8045 33.6188 43.8045C33.9513 43.8045 34.5887 43.9771 35.0044 44.1496C35.4201 44.3468 35.9744 44.8645 36.2238 45.3329C36.4732 45.7766 36.7226 46.6147 36.7504 47.157C36.7781 47.6993 36.8058 48.4388 36.7781 48.8086C36.7504 49.1783 36.3624 49.8192 35.8912 50.2383C35.2816 50.7806 34.8104 50.9778 34.0345 50.9778C33.4525 50.9778 32.6765 50.7806 32.3163 50.5341C31.9283 50.2876 31.4571 49.7453 31.2631 49.3016C31.0692 48.8579 30.9029 47.9458 30.9029 47.2802C30.9029 46.59 31.0969 45.7026 31.3186 45.3082Z" fill="#B39F93"/>
<path d="M58.5026 45.2025C58.5026 44.8081 58.8352 44.2165 59.3063 43.7974C59.9437 43.2058 60.3317 43.0826 61.3571 43.0826C62.0776 43.0826 62.8813 43.1812 63.1862 43.3291C63.5741 43.5016 63.7404 43.8221 63.7404 44.4383C63.7404 44.9067 63.6296 45.3011 63.4633 45.3011C63.3247 45.3011 63.1307 45.0792 63.0476 44.8081C62.9644 44.5369 62.6319 44.1179 62.2993 43.9207C61.9113 43.6742 61.3848 43.5756 60.9137 43.6742C60.4703 43.7481 60.0823 44.0193 59.9991 44.3151C59.916 44.5862 59.916 45.0299 59.9991 45.3011C60.0823 45.5723 60.7197 46.0406 61.4679 46.3857C62.1885 46.7062 62.9921 47.1745 63.2693 47.421C63.5187 47.6675 63.8235 48.2591 63.9067 48.7522C64.073 49.467 63.9621 49.7382 63.2416 50.4777C62.4656 51.2665 62.2993 51.3404 60.7197 51.3404C59.6111 51.3404 58.9183 51.2172 58.6412 50.9707C58.3918 50.7488 58.1146 50.1572 58.0038 49.6149C57.8375 48.9247 57.8652 48.6782 58.1147 48.7522C58.3086 48.8261 58.752 49.2452 59.0846 49.7382C59.6112 50.4037 59.9714 50.6009 60.7197 50.6502C61.2462 50.6995 61.8282 50.5763 62.0222 50.4037C62.2162 50.2312 62.3825 49.8121 62.3825 49.4917C62.3825 49.1466 62.0776 48.6289 61.7451 48.3331C61.3848 48.0619 60.7197 47.6429 60.2208 47.421C59.722 47.1992 59.1123 46.7555 58.8906 46.4597C58.6689 46.1639 58.4749 45.5969 58.5026 45.2025Z" fill="#B39F93"/>
<path fill-rule="evenodd" clip-rule="evenodd" d="M102.123 43.6249C101.513 43.9453 100.737 44.6355 100.377 45.1778C99.8784 45.9667 99.7675 46.435 99.8506 47.5196C99.9061 48.3577 100.183 49.1712 100.571 49.6642C100.876 50.1079 101.569 50.6502 102.068 50.8967C102.622 51.1432 103.62 51.3158 104.617 51.3158C105.864 51.3158 106.557 51.1925 107.333 50.7735C107.943 50.453 108.608 49.7875 108.941 49.1712C109.384 48.4071 109.523 47.7908 109.439 46.8541C109.384 46.0653 109.107 45.3257 108.747 44.882C108.414 44.4876 107.832 43.97 107.416 43.6988C106.89 43.3537 106.114 43.1812 104.95 43.1319C103.564 43.0579 103.038 43.1565 102.123 43.6249ZM103.899 44.0757C103.567 44.1989 103.04 44.6673 102.708 45.111C102.292 45.678 102.126 46.3189 102.126 47.3295C102.126 48.1184 102.32 49.0797 102.541 49.4988C102.763 49.8932 103.234 50.3862 103.594 50.608C103.927 50.8053 104.648 50.9778 105.174 50.9778C105.701 50.9778 106.449 50.7806 106.837 50.5094C107.253 50.2629 107.668 49.5974 107.862 48.9811C108.084 48.217 108.112 47.5267 107.918 46.7133C107.779 46.0724 107.502 45.2836 107.28 44.9878C107.059 44.6919 106.56 44.2975 106.172 44.125C105.784 43.9524 105.23 43.8292 104.98 43.8292C104.703 43.8292 104.204 43.9524 103.899 44.0757Z" fill="#B39F93"/>
<path d="M134.076 44.7095C134.353 44.3151 135.157 43.7728 135.822 43.5263C136.737 43.1812 137.568 43.0826 139.037 43.1319C140.118 43.1565 141.088 43.2551 141.143 43.3291C141.199 43.3784 141.337 43.9207 141.448 44.4876C141.531 45.0546 141.531 45.523 141.42 45.523C141.309 45.523 140.949 45.1532 140.644 44.7341C140.284 44.1918 139.73 43.8467 139.065 43.6988C138.233 43.5016 137.818 43.5263 137.014 43.8714C136.46 44.0932 135.795 44.5862 135.573 44.9806C135.323 45.3504 135.074 46.1146 135.019 46.6569C134.963 47.1992 135.019 48.0126 135.185 48.5056C135.351 48.974 135.878 49.6642 136.349 50.034C137.014 50.5763 137.457 50.7242 138.51 50.6995C139.647 50.6995 139.924 50.5763 141.725 48.8754L141.531 49.8614C141.42 50.4037 141.199 50.9214 141.005 51.02C140.811 51.1186 140.146 51.2665 139.536 51.3404C138.926 51.439 137.762 51.3651 136.903 51.1925C135.878 50.9953 135.102 50.6256 134.52 50.1326C134.049 49.7135 133.494 48.9247 133.3 48.3824C133.023 47.6182 133.023 47.1499 133.245 46.4104C133.411 45.8681 133.799 45.1039 134.076 44.7095Z" fill="#B39F93"/>
<path d="M153.67 43.5016C153.171 43.7728 152.783 44.2658 152.672 44.6848C152.561 45.0792 152.589 45.7202 152.727 46.0899C152.894 46.5583 153.503 47.0266 154.584 47.5936C155.609 48.1112 156.275 48.6536 156.441 49.0726C156.635 49.541 156.635 49.8861 156.413 50.1572C156.247 50.4037 155.803 50.6256 155.443 50.6749C155.083 50.7242 154.501 50.6749 154.168 50.6009C153.808 50.527 153.282 50.0833 152.977 49.6149C152.672 49.1219 152.312 48.8015 152.145 48.8754C151.961 48.9576 151.961 49.3027 152.145 49.9107C152.284 50.4284 152.589 50.9214 152.783 51.02C152.949 51.1186 153.559 51.2665 154.085 51.3651C154.612 51.4391 155.499 51.3897 156.025 51.2665C156.552 51.1186 157.161 50.8474 157.355 50.6749C157.549 50.5023 157.799 49.8861 157.91 49.3191C158.104 48.3824 158.048 48.2591 157.106 47.4703C156.552 47.0266 155.693 46.435 155.194 46.1639C154.695 45.8927 154.141 45.4737 153.974 45.2271C153.753 44.9067 153.753 44.6848 153.974 44.3644C154.168 44.1179 154.473 43.8467 154.667 43.7235C154.889 43.6002 155.36 43.5756 155.748 43.6495C156.136 43.7235 156.69 44.1425 156.995 44.6109L157.549 45.4243C157.688 44.0686 157.577 43.5756 157.411 43.4523C157.245 43.3044 156.524 43.1565 155.803 43.1319C154.889 43.0579 154.252 43.1812 153.67 43.5016Z" fill="#B39F93"/>
<path fill-rule="evenodd" clip-rule="evenodd" d="M40.4614 43.9453C40.1565 43.8714 39.9348 43.6988 39.9348 43.5509C39.9625 43.3537 40.9602 43.3044 43.011 43.3537C45.8932 43.4277 46.0871 43.477 46.6137 44.0686C46.8908 44.389 47.1402 45.0299 47.1402 45.4736C47.1125 45.9174 46.8908 46.4843 46.6414 46.7308C46.3643 46.9773 45.9763 47.2238 45.7546 47.2731C45.422 47.3717 45.422 47.495 45.7546 48.0126C45.9486 48.3331 46.6137 49.0973 47.2511 49.6889C47.9439 50.3298 48.609 50.7242 48.997 50.7242C49.3296 50.7242 49.8007 50.6502 50.0224 50.6009C50.3827 50.4777 50.4381 49.8861 50.4381 47.2731C50.4381 44.2658 50.4104 44.0439 49.8838 43.9453C49.579 43.8714 49.3296 43.6988 49.3296 43.5756C49.3296 43.403 50.6321 43.3291 55.9807 43.3291L56.0916 44.1179C56.147 44.5616 56.0916 45.0299 55.953 45.1778C55.7867 45.3257 55.6205 45.2025 55.4819 44.8327C55.371 44.4876 55.0108 44.1425 54.6782 44.0193C54.3179 43.896 53.5974 43.8221 52.1009 43.8221V46.7801H53.0708C53.8191 46.7801 54.1794 46.6076 55.1493 45.4243V46.9527C55.1493 47.8154 55.0385 48.5056 54.8722 48.5056C54.7336 48.5056 54.5674 48.2838 54.5396 48.0373C54.4842 47.7415 54.1239 47.5196 53.4865 47.421C52.96 47.2978 52.4334 47.3224 52.2949 47.421C52.184 47.5443 52.1286 48.2345 52.2395 50.3544L53.7637 50.4284C55.2048 50.5023 55.3433 50.453 56.0362 49.6889C56.4242 49.2452 56.8399 48.974 56.923 49.1219C57.0061 49.2452 56.9507 49.7628 56.535 51.2172H51.7683C47.9439 51.2172 46.8631 51.1432 46.3643 50.8474C46.004 50.6256 45.2835 49.8614 44.7569 49.1219C44.1103 48.2181 43.6022 47.7661 43.2327 47.7661C42.7616 47.7661 42.6784 47.914 42.6784 49.1219C42.6784 50.3544 42.7338 50.4777 43.3712 50.6009C43.7592 50.6502 44.0641 50.8228 44.0641 50.9707C44.0641 51.0939 43.1495 51.2172 41.847 51.2172C40.6276 51.2172 39.63 51.1186 39.63 51.02C39.63 50.9214 39.9348 50.6995 40.3228 50.527C41.0156 50.2312 41.0156 50.1819 41.0156 47.1499C41.0156 44.2658 40.9879 44.0439 40.4614 43.9453ZM43.2352 47.4035L43.0689 44.0757L43.8449 44.051C44.2883 44.051 44.898 44.2236 45.2583 44.4208C45.674 44.6919 45.868 45.0617 45.868 45.604C45.868 46.0477 45.7294 46.59 45.5354 46.8365C45.3414 47.0584 44.7317 47.2802 43.2352 47.4035Z" fill="#B39F93"/>
<path fill-rule="evenodd" clip-rule="evenodd" d="M90.6222 43.5756C90.6222 43.6988 90.8716 43.8714 91.1764 43.9453C91.703 44.0439 91.7307 44.2658 91.7307 47.1499C91.7307 50.1572 91.7307 50.2312 91.0656 50.527C90.6776 50.6995 90.4281 50.9214 90.5113 51.02C90.5667 51.1186 91.5644 51.2172 92.7007 51.2172C93.92 51.2172 94.7791 51.0939 94.7791 50.9707C94.7791 50.8228 94.502 50.6749 94.1694 50.6502C93.6152 50.6009 93.532 50.4284 93.4766 49.1712C93.3935 47.8894 93.4489 47.7661 93.9477 47.7661C94.308 47.7661 94.8068 48.1852 95.4165 49.0233C95.9154 49.7382 96.6082 50.5023 96.9962 50.7488C97.4396 51.0446 98.1047 51.2172 98.7975 51.1925C99.7952 51.1925 99.8506 51.1432 99.3518 50.8721C99.047 50.7242 98.3818 50.2065 97.8553 49.7382C97.3564 49.2452 96.7468 48.555 96.5528 48.1852C96.1925 47.5443 96.2202 47.4703 96.9962 46.9034C97.5781 46.4597 97.8276 46.0653 97.8276 45.5476C97.8276 45.1285 97.7444 44.6109 97.6336 44.389C97.5227 44.1672 97.0793 43.8467 96.6636 43.6495C96.1648 43.4523 94.9177 43.3291 93.2549 43.3291C91.703 43.3291 90.6222 43.4277 90.6222 43.5756ZM93.8117 47.5021C95.4191 47.2802 96.0565 47.0337 96.2505 46.8119C96.4445 46.59 96.583 46.097 96.583 45.7273C96.583 45.3329 96.3336 44.8152 96.0288 44.544C95.7239 44.2729 95.1142 44.051 94.6431 44.051H93.8117V47.5021Z" fill="#B39F93"/>
<path fill-rule="evenodd" clip-rule="evenodd" d="M111.684 43.9453C111.379 43.8714 111.158 43.6988 111.158 43.5263C111.185 43.3537 112.211 43.2798 114.566 43.3537C117.393 43.4523 118.086 43.5263 118.89 43.9946C119.416 44.2904 120.026 44.7588 120.22 45.0299C120.414 45.3011 120.635 46.016 120.719 46.5829C120.857 47.3471 120.746 47.9387 120.358 48.7522C120.007 49.4917 119.472 50.0668 118.751 50.4777C117.753 51.02 117.338 51.0939 114.261 51.1432C112.128 51.1925 110.853 51.1186 110.853 50.9707C110.853 50.8228 111.158 50.6502 112.238 50.4777V47.2731C112.238 44.2658 112.211 44.0439 111.684 43.9453ZM114.652 50.6573C114.403 50.4355 114.319 49.4495 114.375 47.157L114.403 43.9771L115.955 44.125C117.285 44.2482 117.645 44.3961 118.421 45.1357C119.225 45.9245 119.308 46.171 119.308 47.576C119.336 48.8825 119.225 49.203 118.615 49.7946C118.255 50.1643 117.617 50.5834 117.229 50.7066C116.841 50.8545 116.204 50.9532 115.788 50.9532C115.373 50.9532 114.846 50.8299 114.652 50.6573Z" fill="#B39F93"/>
<path d="M122.215 43.5756C122.215 43.6988 122.465 43.8714 122.769 43.9453C123.296 44.0439 123.324 44.2658 123.324 46.5829C123.324 48.5057 123.435 49.3191 123.823 49.9847C124.155 50.5516 124.598 50.9214 125.264 51.1432C125.79 51.2911 126.677 51.439 127.204 51.439C127.73 51.439 128.589 51.2418 129.088 50.9707C129.587 50.6995 130.169 50.0833 130.391 49.6149C130.668 49.0726 130.806 47.9633 130.806 46.6569C130.806 45.4983 130.862 44.389 130.945 44.1918C131.028 43.97 131.333 43.8221 131.638 43.8221C131.942 43.8221 132.192 43.6988 132.192 43.5756C132.192 43.4277 131.388 43.3291 130.335 43.3291H128.451C130.03 44.4383 130.03 44.4383 129.947 46.9773C129.836 49.3931 129.809 49.5656 129.088 50.1079C128.617 50.4777 127.952 50.7242 127.425 50.7242C126.816 50.7242 126.289 50.527 125.818 50.0833C125.18 49.467 125.125 49.2945 125.125 46.6815C125.125 44.0193 125.153 43.9453 125.762 43.8714C126.095 43.8467 126.372 43.6988 126.372 43.5756C126.372 43.4277 125.513 43.3291 124.294 43.3291C123.102 43.3291 122.215 43.4277 122.215 43.5756Z" fill="#B39F93"/>
</svg>
