<svg width="176" height="76" viewBox="0 0 176 76" fill="none" xmlns="http://www.w3.org/2000/svg">
<path d="M93.523 30.1768L106.074 30.1763L106.075 33.115H97.3834L97.3828 35.9815H104.831V38.951H97.3828V41.741H106.215L106.215 44.985H93.523V30.1768Z" fill="#B39F93"/>
<path d="M120.264 30.1574L132.862 30.1775V33.1109H124.167L124.167 35.978H131.487V38.9476H124.167V41.7369H132.999L133 44.991H120.276L120.264 30.1574Z" fill="#B39F93"/>
<path d="M43 30.156H46.8338V35.7223H54.2145V30.156L58.0477 30.1512V44.9879L54.218 44.9849L54.2145 39.2307H46.8338V44.9837L43 44.9831V30.156Z" fill="#B39F93"/>
<path d="M79.635 30.1748L92.6537 30.1784V33.1023L83.5689 33.1029L83.5695 35.9267H91.2098L91.2069 38.9478H83.5695V44.9907H79.635V30.1748Z" fill="#B39F93"/>
<path d="M67.1433 30.1702H70.5225L78.784 44.9897H74.6485L72.8466 41.8393H64.6515L62.8626 44.9914H58.9097L67.1433 30.1702ZM68.7093 33.8487L65.9727 38.8626H71.4128L68.7093 33.8487Z" fill="#B39F93"/>
<path d="M60.7322 30.1734H64.3312V32.7476H60.7322V30.1734Z" fill="#B39F93"/>
<path d="M76.806 30.1767L73.1927 30.169V32.7468H76.806V30.1767Z" fill="#B39F93"/>
<path d="M111.365 30.1751L107.206 30.1798L107.212 44.9856L119.417 44.988L119.41 41.6883L111.363 41.6865L111.365 30.1751Z" fill="#B39F93"/>
</svg>
