<svg width="176" height="76" viewBox="0 0 176 76" fill="none" xmlns="http://www.w3.org/2000/svg">
<path fill-rule="evenodd" clip-rule="evenodd" d="M45.2023 32.8327C44.0365 35.3647 42.906 38.0003 42.6908 38.6897C42.097 40.5877 41.2726 39.6027 41.267 36.9888C41.2648 35.7133 41.1054 33.3628 40.9134 31.7647C40.5648 28.8603 40.5643 28.8597 38.5634 28.8597C36.583 28.8597 36.5471 28.9012 35.0951 32.8714C34.2878 35.0781 32.7374 39.3111 31.6495 42.2781L29.6719 47.6731H31.691C32.801 47.6731 33.5596 47.5232 33.3765 47.34C33.0843 47.0479 35.2678 40.2396 36.9742 36.1206L37.5752 34.6698L37.9747 36.3298C38.1943 37.2428 38.4068 39.2348 38.4461 40.7564C38.4854 42.2781 38.6741 44.4699 38.865 45.6263C39.1505 47.3528 39.4183 47.7002 40.3584 47.563C41.2299 47.4363 42.1701 45.9135 44.2927 41.188C45.8271 37.7734 47.3045 34.9724 47.5767 34.963C47.8539 34.9536 47.9153 36.6208 47.7167 38.7567C47.5219 40.8527 47.5203 43.7162 47.7123 45.12C48.0476 47.5636 48.14 47.6731 49.8719 47.6731C51.3228 47.6731 51.6315 47.4811 51.4296 46.7048C51.2912 46.1725 51.0035 41.8769 50.7899 37.1598L50.402 28.5831L48.8627 28.406C47.4251 28.2411 47.1822 28.5349 45.2023 32.8327ZM67.2788 29.6986C67.2788 30.4644 66.4073 34.4617 65.3421 38.5818C64.2769 42.7014 63.4054 46.4326 63.4054 46.873C63.4054 47.4186 64.0213 47.6731 65.3421 47.6731C66.9396 47.6731 67.2788 47.4701 67.2788 46.5133C67.2788 44.72 68.91 39.5325 69.673 38.8995C70.0482 38.5879 71.7154 38.2554 73.3771 38.1613C75.7321 38.0274 76.4392 37.7762 76.5825 37.0214C76.7414 36.1853 76.3081 36.0531 73.4058 36.0531C69.7854 36.0531 69.6603 35.9087 70.5379 32.7331C70.8887 31.4648 71.2401 31.3265 74.7709 31.0731C78.2448 30.8235 78.6393 30.6741 78.7992 29.5514C78.973 28.3274 78.8761 28.3064 73.1275 28.3064H67.2788V29.6986ZM96.0002 32.3181L95.2028 35.7764L92.6038 36.0763C90.9892 36.2628 89.5051 36.846 88.6834 37.6179C86.4767 39.6913 85.2777 45.5306 86.7562 47.0091C87.1485 47.4014 89.016 47.6704 91.3212 47.6665L95.2222 47.6593L97.305 38.9515C98.4504 34.1618 99.3838 29.9321 99.38 29.5514C99.3755 29.1713 98.7929 28.8597 98.0852 28.8597C96.9602 28.8597 96.6974 29.2958 96.0002 32.3181ZM107.62 32.3181L106.823 35.7764L104.224 36.0763C100.07 36.5555 97.7244 39.6476 97.7155 44.6575C97.7105 47.1729 98.5782 47.6731 102.941 47.6709L106.842 47.6687L108.921 38.6792C110.065 33.7352 110.998 29.5033 110.996 29.2747C110.994 29.0462 110.413 28.8597 109.705 28.8597C108.58 28.8597 108.317 29.2958 107.62 32.3181ZM55.6266 36.8676C53.9096 37.8011 52.9147 39.8468 52.508 43.2802C52.2408 45.5389 52.3631 45.9672 53.5007 46.7646C55.0329 47.8375 58.9583 47.9653 60.1789 46.9815C60.6509 46.6013 61.191 45.8482 61.3791 45.3087C61.6657 44.4854 61.5506 44.4184 60.6625 44.8937C59.1785 45.6883 56.4627 45.5987 55.7428 44.7316C55.309 44.2081 55.3057 43.3898 55.7329 41.8266C56.5535 38.8209 57.0631 38.3505 59.7086 38.158C61.3808 38.0357 62.063 37.7242 62.1964 37.0214C62.3508 36.2053 61.9601 36.0564 59.7108 36.0752C58.2428 36.0874 56.4052 36.4437 55.6266 36.8676ZM78.1612 36.4222C77.059 37.5239 77.9316 38.2664 80.3281 38.2664C83.3559 38.2664 83.5136 39.5574 80.5162 39.808C77.0396 40.0985 75.6358 40.9911 74.9248 43.3643C73.9133 46.7408 74.5983 47.3644 79.5257 47.5558L83.6331 47.7152L84.6457 42.7047C85.8808 36.5948 85.618 36.0531 81.4132 36.0531C79.8273 36.0531 78.3637 36.2191 78.1612 36.4222ZM112.22 37.0491C111.015 37.9765 109.332 42.2836 109.332 44.4411C109.332 46.3711 111.325 47.6731 114.281 47.6731C116.48 47.6731 117.185 47.4319 117.877 46.4431C119.057 44.7587 118.958 44.1971 117.607 44.9203C116.984 45.2534 115.677 45.4487 114.702 45.3547C113.231 45.2125 112.899 44.9242 112.754 43.6615C112.579 42.1409 112.581 42.1398 116.148 42.1398C119.381 42.1398 119.748 42.0225 120.05 40.8948C120.656 38.6361 120.414 37.2068 119.329 36.6258C117.641 35.7228 113.633 35.9612 112.22 37.0491ZM121.389 40.9324C120.869 43.6139 120.282 46.2273 120.085 46.7402C119.797 47.4916 120.061 47.6731 121.446 47.6731C122.715 47.6731 123.165 47.4197 123.164 46.7048C123.163 46.1725 123.571 44.0554 124.069 42.0014C124.926 38.4706 125.062 38.2664 126.56 38.2664C128.446 38.2664 128.566 39.1429 127.316 43.7998C126.25 47.7678 126.232 47.6731 128.073 47.6731C129.482 47.6731 129.695 47.4407 129.973 45.5981C130.146 44.4572 130.606 42.0773 130.997 40.3105C131.878 36.3259 131.592 36.0725 126.209 36.0636L122.336 36.057L121.389 40.9324ZM132.975 37.1238C132.8 37.7917 133.036 38.335 133.602 38.5669C134.394 38.8917 134.37 38.9957 133.402 39.3936C132.326 39.8362 132.328 39.8495 133.476 39.8877C134.589 39.9242 135.31 38.7019 135.331 36.7448C135.343 35.6232 133.281 35.9552 132.975 37.1238ZM137.96 36.7448C136.657 37.7341 135.896 40.0709 136.516 41.1781C136.798 41.6827 137.897 42.2582 138.957 42.4568C141.248 42.8868 141.779 43.537 140.803 44.7133C140.271 45.3536 139.397 45.5118 137.436 45.3237C134.918 45.0819 134.786 45.1372 134.786 46.4353C134.786 47.775 134.859 47.7976 138.457 47.5686C142.735 47.2958 144.371 45.9711 144.082 43.0124C143.94 41.5588 143.571 41.1908 141.559 40.4953C138.637 39.4849 138.812 38.6294 142.017 38.2664C143.766 38.0683 144.511 37.7148 144.643 37.0214C144.799 36.1964 144.386 36.0531 141.848 36.0531C140.211 36.0531 138.461 36.3646 137.96 36.7448ZM114.105 38.5531C112.682 39.9757 113.036 40.4798 115.458 40.4798C117.476 40.4798 117.691 40.3508 117.533 39.2348C117.313 37.6899 115.357 37.3009 114.105 38.5531ZM90.2959 39.5114C89.8548 40.1959 89.3253 41.6789 89.1195 42.8066C88.7758 44.6884 88.8633 44.8865 90.1841 45.218C92.3382 45.7586 93.0913 45.2246 93.4836 42.879C93.6784 41.7115 93.9921 40.1959 94.1797 39.5114C94.4807 38.4153 94.3169 38.2664 92.8097 38.2664C91.641 38.2664 90.8431 38.6615 90.2959 39.5114ZM102.183 39.0428C101.244 40.1754 100.435 43.3427 100.795 44.4787C100.999 45.12 101.661 45.4598 102.708 45.4598C104.382 45.4598 104.408 45.4117 105.765 39.7881C106.104 38.386 106.003 38.2664 104.48 38.2664C103.571 38.2664 102.538 38.6156 102.183 39.0428ZM78.4655 42.2781C78.1529 42.6588 77.8115 43.4678 77.7064 44.0765C77.5536 44.9612 77.8613 45.2169 79.2413 45.3513C80.6479 45.488 81.0308 45.2827 81.3091 44.2447C81.8896 42.0767 81.7125 41.5864 80.3497 41.5864C79.6264 41.5864 78.7787 41.898 78.4655 42.2781Z" fill="#B39F93"/>
</svg>
