<svg width="200" height="28" viewBox="0 0 200 28" fill="none" xmlns="http://www.w3.org/2000/svg">
<g id="logo_horizontal" clip-path="url(#clip0_2005_2589)">
<path id="Vector" d="M196.079 16.3965L191.299 10.7637H195.942L199.739 15.1976V16.3965H196.079ZM183.294 16.3965V0.131348H196.354C196.979 0.131348 197.543 0.282161 198.047 0.583787C198.565 0.885415 198.977 1.29261 199.282 1.80537C199.602 2.31814 199.762 2.87614 199.762 3.47941V7.68709C199.762 8.29035 199.602 8.84835 199.282 9.36113C198.977 9.87388 198.565 10.2811 198.047 10.5827C197.543 10.8843 196.979 11.0351 196.354 11.0351L186.839 11.0578V16.3965H183.294ZM186.839 7.50611H196.171V3.63777H186.839V7.50611Z" fill="#181615"/>
<path id="Vector_2" d="M159.416 16.3967V3.45693C159.416 2.8386 159.569 2.2806 159.873 1.78291C160.178 1.27015 160.59 0.862954 161.109 0.561326C161.627 0.2597 162.191 0.108887 162.801 0.108887H172.476C173.101 0.108887 173.665 0.2597 174.169 0.561326C174.687 0.862954 175.099 1.27015 175.404 1.78291C175.724 2.2806 175.884 2.8386 175.884 3.45693V16.3967H172.293V11.1484H162.961V16.3967H159.416ZM162.961 7.61939H172.293V3.63791H162.961V7.61939Z" fill="#181615"/>
<path id="Vector_3" d="M136.767 16.3969V0.0864258H140.312V12.8679H153.235V16.3969H136.767Z" fill="#181615"/>
<path id="Vector_4" d="M116.338 16.3967C115.728 16.3967 115.164 16.2459 114.646 15.9443C114.127 15.6427 113.715 15.2355 113.411 14.7227C113.105 14.2099 112.953 13.6519 112.953 13.0487V3.45694C112.953 2.83861 113.105 2.2806 113.411 1.78291C113.715 1.27015 114.127 0.862952 114.646 0.561326C115.164 0.2597 115.728 0.108887 116.338 0.108887H126.036C126.646 0.108887 127.202 0.2597 127.706 0.561326C128.224 0.862952 128.636 1.27015 128.941 1.78291C129.261 2.2806 129.421 2.83861 129.421 3.45694V13.0487C129.421 13.6519 129.261 14.2099 128.941 14.7227C128.636 15.2355 128.224 15.6427 127.706 15.9443C127.202 16.2459 126.646 16.3967 126.036 16.3967H116.338ZM116.498 12.8677H125.83V3.63791H116.498V12.8677Z" fill="#181615"/>
<path id="Vector_5" d="M89.2344 16.3967V0.108887H101.677C102.287 0.108887 102.843 0.2597 103.346 0.561326C103.865 0.862952 104.277 1.27015 104.582 1.78291C104.902 2.2806 105.062 2.83861 105.062 3.45694V6.51091C105.062 6.70697 105.047 6.89548 105.016 7.07646C105.001 7.24235 104.963 7.4007 104.902 7.55153C105.13 7.83806 105.321 8.16986 105.474 8.54688C105.626 8.92392 105.702 9.30094 105.702 9.67799V13.0487C105.702 13.6519 105.542 14.2099 105.222 14.7227C104.917 15.2355 104.505 15.6427 103.987 15.9443C103.484 16.2459 102.919 16.3967 102.294 16.3967H89.2344ZM92.7795 12.8677H102.111V9.88159H92.7795V12.8677ZM92.7795 6.35255H101.471V3.63791H92.7795V6.35255Z" fill="#181615"/>
<path id="Vector_6" d="M65.2881 16.3967V3.45694C65.2881 2.83861 65.4406 2.2806 65.7455 1.78291C66.0504 1.27015 66.4621 0.862952 66.9806 0.561326C67.499 0.2597 68.0633 0.108887 68.6731 0.108887H78.3482C78.9732 0.108887 79.5374 0.2597 80.0406 0.561326C80.5591 0.862952 80.9708 1.27015 81.2757 1.78291C81.5958 2.2806 81.756 2.83861 81.756 3.45694V16.3967H78.1651V11.1484H68.8333V16.3967H65.2881ZM68.8333 7.61939H78.1651V3.63791H68.8333V7.61939Z" fill="#181615"/>
<path id="Vector_7" d="M41.4775 16.3967V0.108887H53.92C54.53 0.108887 55.0866 0.2597 55.5896 0.561326C56.1081 0.862952 56.5197 1.27015 56.8249 1.78291C57.145 2.2806 57.3052 2.83861 57.3052 3.45694V6.51091C57.3052 6.70697 57.2899 6.89548 57.2594 7.07646C57.2442 7.24235 57.206 7.4007 57.145 7.55153C57.3736 7.83806 57.5643 8.16986 57.7169 8.54688C57.8692 8.92392 57.9455 9.30094 57.9455 9.67799V13.0487C57.9455 13.6519 57.7853 14.2099 57.4651 14.7227C57.1603 15.2355 56.7486 15.6427 56.2301 15.9443C55.7269 16.2459 55.1626 16.3967 54.5376 16.3967H41.4775ZM45.0227 12.8677H54.3545V9.88159H45.0227V12.8677ZM45.0227 6.35255H53.7142V3.63791H45.0227V6.35255Z" fill="#181615"/>
<path id="Vector_8" d="M15.2969 1.19084C15.2969 0.563362 15.8056 0.0546875 16.433 0.0546875H26.5159C27.1433 0.0546875 27.652 0.563362 27.652 1.19085V11.2736C27.652 11.9011 27.1433 12.4098 26.5159 12.4098H16.433C15.8056 12.4098 15.2969 11.9011 15.2969 11.2736V1.19084Z" fill="#B39F93"/>
<path id="Vector_9" d="M15.2969 16.4877C15.2969 15.8602 15.8056 15.3516 16.433 15.3516H26.5159C27.1433 15.3516 27.652 15.8602 27.652 16.4877V26.5704C27.652 27.1981 27.1433 27.7066 26.5159 27.7066H16.433C15.8056 27.7066 15.2969 27.1981 15.2969 26.5704V16.4877Z" fill="#B39F93"/>
<path id="Vector_10" d="M1.13616 27.7066C0.508675 27.7066 1.13681e-06 27.1979 1.10938e-06 26.5705L0 1.19085C-2.74281e-08 0.563364 0.508675 0.054688 1.13616 0.0546879L11.219 0.0546875C11.8464 0.0546875 12.3551 0.563364 12.3551 1.19085V26.5705C12.3551 27.1979 11.8464 27.7066 11.219 27.7066H1.13616Z" fill="#B39F93"/>
<path id="Vector_11" d="M198.999 27.7065L197.965 25.9172H197.403V27.7065H196.666V23.2334H198.217C198.561 23.2334 198.852 23.2935 199.089 23.4136C199.33 23.5338 199.509 23.6947 199.625 23.8962C199.746 24.0979 199.806 24.3232 199.806 24.572C199.806 24.8638 199.72 25.1298 199.548 25.3701C199.38 25.6061 199.119 25.767 198.766 25.8529L199.877 27.7065H198.999ZM197.403 25.3315H198.217C198.492 25.3315 198.699 25.2629 198.837 25.1256C198.979 24.9882 199.05 24.8037 199.05 24.572C199.05 24.3403 198.981 24.1601 198.844 24.0314C198.706 23.8984 198.497 23.832 198.217 23.832H197.403V25.3315Z" fill="#181615"/>
<path id="Vector_12" d="M189.491 23.8256V25.1386H191.041V25.7372H189.491V27.1081H191.235V27.7067H188.754V23.2271H191.235V23.8256H189.491Z" fill="#181615"/>
<path id="Vector_13" d="M183.264 23.2334V27.7065H182.527V23.2334H183.264Z" fill="#181615"/>
<path id="Vector_14" d="M175.869 27.1144H177.388V27.7065H175.133V23.2334H175.869V27.1144Z" fill="#181615"/>
<path id="Vector_15" d="M167.957 23.8256V25.1386H169.508V25.7372H167.957V27.1081H169.702V27.7067H167.221V23.2271H169.702V23.8256H167.957Z" fill="#181615"/>
<path id="Vector_16" d="M161.951 23.2334V23.832H160.756V27.7065H160.019V23.832H158.817V23.2334H161.951Z" fill="#181615"/>
<path id="Vector_17" d="M152.729 26.7927H150.849L150.526 27.7067H149.757L151.366 23.2271H152.219L153.828 27.7067H153.052L152.729 26.7927ZM152.523 26.1942L151.792 24.1153L151.056 26.1942H152.523Z" fill="#181615"/>
<path id="Vector_18" d="M137.55 24.5209C137.433 24.2978 137.272 24.1304 137.065 24.0189C136.858 23.903 136.619 23.8451 136.348 23.8451C136.05 23.8451 135.786 23.9116 135.553 24.0446C135.32 24.1776 135.137 24.3664 135.004 24.611C134.874 24.8556 134.81 25.1388 134.81 25.4606C134.81 25.7824 134.874 26.0677 135.004 26.3166C135.137 26.5612 135.32 26.75 135.553 26.883C135.786 27.016 136.05 27.0825 136.348 27.0825C136.748 27.0825 137.073 26.971 137.323 26.7478C137.573 26.5247 137.726 26.2222 137.782 25.8403H136.096V25.2546H138.571V25.8275C138.523 26.175 138.398 26.4947 138.196 26.7865C137.997 27.0782 137.737 27.3121 137.414 27.488C137.095 27.6596 136.74 27.7455 136.348 27.7455C135.925 27.7455 135.54 27.6489 135.191 27.4558C134.842 27.2585 134.564 26.986 134.357 26.6384C134.155 26.2909 134.054 25.8983 134.054 25.4606C134.054 25.0229 134.155 24.6303 134.357 24.2828C134.564 23.9352 134.842 23.6649 135.191 23.4718C135.544 23.2745 135.93 23.1758 136.348 23.1758C136.826 23.1758 137.25 23.2938 137.621 23.5298C137.995 23.7615 138.267 24.0918 138.435 24.5209H137.55Z" fill="#181615"/>
<path id="Vector_19" d="M128.808 27.7067H128.071L125.855 24.3663V27.7067H125.118V23.2271H125.855L128.071 26.561V23.2271H128.808V27.7067Z" fill="#181615"/>
<path id="Vector_20" d="M119.628 23.2334V27.7065H118.892V23.2334H119.628Z" fill="#181615"/>
<path id="Vector_21" d="M112.754 27.7065L111.016 25.7048V27.7065H110.279V23.2334H111.016V25.2736L112.761 23.2334H113.685L111.733 25.4731L113.717 27.7065H112.754Z" fill="#181615"/>
<path id="Vector_22" d="M104.006 27.7065L102.972 25.9172H102.41V27.7065H101.673V23.2334H103.224C103.568 23.2334 103.859 23.2935 104.096 23.4136C104.337 23.5338 104.516 23.6947 104.632 23.8962C104.753 24.0979 104.813 24.3232 104.813 24.572C104.813 24.8638 104.727 25.1298 104.555 25.3701C104.387 25.6061 104.126 25.767 103.773 25.8529L104.885 27.7065H104.006ZM102.41 25.3315H103.224C103.5 25.3315 103.706 25.2629 103.844 25.1256C103.986 24.9882 104.057 24.8037 104.057 24.572C104.057 24.3403 103.988 24.1601 103.85 24.0314C103.713 23.8984 103.504 23.832 103.224 23.832H102.41V25.3315Z" fill="#181615"/>
<path id="Vector_23" d="M94.1308 27.7519C93.713 27.7519 93.3273 27.6554 92.974 27.4623C92.6252 27.2649 92.3473 26.9924 92.1406 26.6449C91.938 26.293 91.8369 25.8983 91.8369 25.4606C91.8369 25.0229 91.938 24.6303 92.1406 24.2828C92.3473 23.9352 92.6252 23.6649 92.974 23.4718C93.3273 23.2745 93.713 23.1758 94.1308 23.1758C94.553 23.1758 94.9385 23.2745 95.2875 23.4718C95.6407 23.6649 95.9184 23.9352 96.1211 24.2828C96.3234 24.6303 96.4248 25.0229 96.4248 25.4606C96.4248 25.8983 96.3234 26.293 96.1211 26.6449C95.9184 26.9924 95.6407 27.2649 95.2875 27.4623C94.9385 27.6554 94.553 27.7519 94.1308 27.7519ZM94.1308 27.1147C94.4281 27.1147 94.6929 27.0482 94.9256 26.9152C95.1582 26.7779 95.3392 26.5848 95.4684 26.3359C95.6019 26.0828 95.6686 25.791 95.6686 25.4606C95.6686 25.1302 95.6019 24.8406 95.4684 24.5917C95.3392 24.3428 95.1582 24.1519 94.9256 24.0189C94.6929 23.8859 94.4281 23.8194 94.1308 23.8194C93.8336 23.8194 93.5685 23.8859 93.3358 24.0189C93.1034 24.1519 92.9203 24.3428 92.7866 24.5917C92.6574 24.8406 92.5928 25.1302 92.5928 25.4606C92.5928 25.791 92.6574 26.0828 92.7866 26.3359C92.9203 26.5848 93.1034 26.7779 93.3358 26.9152C93.5685 27.0482 93.8336 27.1147 94.1308 27.1147Z" fill="#181615"/>
<path id="Vector_24" d="M86.952 23.2334L85.6208 27.7065H84.7872L83.844 24.321L82.8423 27.7065L82.0151 27.7129L80.7422 23.2334H81.5241L82.4547 26.8762L83.4626 23.2334H84.2897L85.2268 26.8569L86.1636 23.2334H86.952Z" fill="#181615"/>
<path id="Vector_25" d="M73.466 23.2339C73.9442 23.2339 74.3621 23.3261 74.7194 23.5106C75.0813 23.6909 75.3592 23.9525 75.553 24.2958C75.7514 24.6347 75.8503 25.0316 75.8503 25.4865C75.8503 25.9413 75.7514 26.3361 75.553 26.6707C75.3592 27.0054 75.0813 27.2629 74.7194 27.4431C74.3621 27.619 73.9442 27.707 73.466 27.707H71.999V23.2339H73.466ZM73.466 27.1084C73.9914 27.1084 74.3943 26.9668 74.6744 26.6836C74.9542 26.4004 75.0944 26.0014 75.0944 25.4865C75.0944 24.9673 74.9542 24.5618 74.6744 24.27C74.3943 23.9782 73.9914 23.8325 73.466 23.8325H72.7359V27.1084H73.466Z" fill="#181615"/>
<path id="Vector_26" d="M64.457 27.7519C64.0391 27.7519 63.6537 27.6554 63.3004 27.4623C62.9514 27.2649 62.6737 26.9924 62.4668 26.6449C62.2644 26.293 62.1631 25.8983 62.1631 25.4606C62.1631 25.0229 62.2644 24.6303 62.4668 24.2828C62.6737 23.9352 62.9514 23.6649 63.3004 23.4718C63.6537 23.2745 64.0391 23.1758 64.457 23.1758C64.8792 23.1758 65.2649 23.2745 65.6139 23.4718C65.9669 23.6649 66.2449 23.9352 66.4472 24.2828C66.6499 24.6303 66.7509 25.0229 66.7509 25.4606C66.7509 25.8983 66.6499 26.293 66.4472 26.6449C66.2449 26.9924 65.9669 27.2649 65.6139 27.4623C65.2649 27.6554 64.8792 27.7519 64.457 27.7519ZM64.457 27.1147C64.7543 27.1147 65.0193 27.0482 65.252 26.9152C65.4844 26.7779 65.6654 26.5848 65.7948 26.3359C65.9283 26.0828 65.995 25.791 65.995 25.4606C65.995 25.1302 65.9283 24.8406 65.7948 24.5917C65.6654 24.3428 65.4844 24.1519 65.252 24.0189C65.0193 23.8859 64.7543 23.8194 64.457 23.8194C64.1598 23.8194 63.8949 23.8859 63.6623 24.0189C63.4296 24.1519 63.2465 24.3428 63.113 24.5917C62.9838 24.8406 62.9192 25.1302 62.9192 25.4606C62.9192 25.791 62.9838 26.0828 63.113 26.3359C63.2465 26.5848 63.4296 26.7779 63.6623 26.9152C63.8949 27.0482 64.1598 27.1147 64.457 27.1147Z" fill="#181615"/>
<path id="Vector_27" d="M54.8672 27.7519C54.4493 27.7519 54.0636 27.6554 53.7105 27.4623C53.3616 27.2649 53.0836 26.9924 52.8769 26.6449C52.6743 26.293 52.5732 25.8983 52.5732 25.4606C52.5732 25.0229 52.6743 24.6303 52.8769 24.2828C53.0836 23.9352 53.3616 23.6649 53.7105 23.4718C54.0636 23.2745 54.4493 23.1758 54.8672 23.1758C55.2893 23.1758 55.6748 23.2745 56.0238 23.4718C56.3771 23.6649 56.6548 23.9352 56.8574 24.2828C57.0598 24.6303 57.1611 25.0229 57.1611 25.4606C57.1611 25.8983 57.0598 26.293 56.8574 26.6449C56.6548 26.9924 56.3771 27.2649 56.0238 27.4623C55.6748 27.6554 55.2893 27.7519 54.8672 27.7519ZM54.8672 27.1147C55.1644 27.1147 55.4293 27.0482 55.6619 26.9152C55.8946 26.7779 56.0755 26.5848 56.2047 26.3359C56.3382 26.0828 56.4049 25.791 56.4049 25.4606C56.4049 25.1302 56.3382 24.8406 56.2047 24.5917C56.0755 24.3428 55.8946 24.1519 55.6619 24.0189C55.4293 23.8859 55.1644 23.8194 54.8672 23.8194C54.5699 23.8194 54.3048 23.8859 54.0724 24.0189C53.8397 24.1519 53.6567 24.3428 53.5229 24.5917C53.3937 24.8406 53.3291 25.1302 53.3291 25.4606C53.3291 25.791 53.3937 26.0828 53.5229 26.3359C53.6567 26.5848 53.8397 26.7779 54.0724 26.9152C54.3048 27.0482 54.5699 27.1147 54.8672 27.1147Z" fill="#181615"/>
<path id="Vector_28" d="M47.6873 23.2339L46.3562 27.707H45.5226L44.5791 24.3215L43.5777 27.707L42.7505 27.7134L41.4775 23.2339H42.2594L43.1898 26.8767L44.1979 23.2339H45.0251L45.9619 26.8574L46.899 23.2339H47.6873Z" fill="#181615"/>
</g>
<defs>
<clipPath id="clip0_2005_2589">
<rect width="200" height="27.8903" fill="white" transform="translate(0 0.0546875)"/>
</clipPath>
</defs>
</svg>
