<svg width="176" height="76" viewBox="0 0 176 76" fill="none" xmlns="http://www.w3.org/2000/svg">
<path d="M37.5 40.0842C37.5 38.6068 37.8026 37.2986 38.4078 36.1594C39.0307 35.0203 39.8673 34.1392 40.9174 33.5163C41.9854 32.8755 43.169 32.5551 44.4684 32.5551C45.4295 32.5551 46.3729 32.7687 47.2985 33.1959C48.2418 33.6052 48.9894 34.157 49.5412 34.8512V29.6349L52.6115 27.5172V47.5064H49.5412V45.2904C49.0428 46.0024 48.3486 46.5898 47.4587 47.0526C46.5865 47.5153 45.5808 47.7467 44.4417 47.7467C43.1601 47.7467 41.9854 47.4263 40.9174 46.7856C39.8673 46.127 39.0307 45.2192 38.4078 44.0623C37.8026 42.8875 37.5 41.5615 37.5 40.0842ZM49.5412 40.1376C49.5412 39.123 49.3276 38.2419 48.9004 37.4944C48.491 36.7468 47.9481 36.1772 47.2718 35.7857C46.5954 35.3941 45.8656 35.1983 45.0825 35.1983C44.2993 35.1983 43.5695 35.3941 42.8932 35.7857C42.2168 36.1594 41.665 36.7201 41.2378 37.4677C40.8285 38.1974 40.6238 39.0696 40.6238 40.0842C40.6238 41.0987 40.8285 41.9887 41.2378 42.754C41.665 43.5194 42.2168 44.1068 42.8932 44.5162C43.5873 44.9077 44.3171 45.1035 45.0825 45.1035C45.8656 45.1035 46.5954 44.9077 47.2718 44.5162C47.9481 44.1246 48.491 43.555 48.9004 42.8074C49.3276 42.0421 49.5412 41.1521 49.5412 40.1376Z" fill="#B39F93"/>
<path d="M68.7572 39.7905C68.7572 40.3423 68.7216 40.8406 68.6504 41.2856H57.4102C57.4992 42.4604 57.9353 43.4037 58.7185 44.1157C59.5016 44.8277 60.4628 45.1836 61.6019 45.1836C63.2395 45.1836 64.3964 44.4984 65.0728 43.1278H68.3567C67.9118 44.4806 67.1019 45.593 65.9271 46.4652C64.7702 47.3195 63.3285 47.7467 61.6019 47.7467C60.1958 47.7467 58.9321 47.4352 57.8107 46.8123C56.7072 46.1715 55.835 45.2815 55.1942 44.1424C54.5713 42.9854 54.2598 41.6505 54.2598 40.1376C54.2598 38.6246 54.5624 37.2986 55.1675 36.1594C55.7905 35.0025 56.6538 34.1125 57.7573 33.4896C58.8787 32.8666 60.1602 32.5551 61.6019 32.5551C62.9903 32.5551 64.2273 32.8577 65.3131 33.4629C66.3988 34.068 67.2443 34.9224 67.8495 36.0259C68.4546 37.1117 68.7572 38.3665 68.7572 39.7905ZM65.5801 38.8293C65.5623 37.708 65.1618 36.8091 64.3786 36.1327C63.5955 35.4564 62.6254 35.1182 61.4684 35.1182C60.4183 35.1182 59.5194 35.4564 58.7719 36.1327C58.0243 36.7913 57.5793 37.6902 57.4369 38.8293H65.5801Z" fill="#B39F93"/>
<path d="M69.403 40.1376C69.403 38.6246 69.7056 37.2986 70.3108 36.1594C70.9337 35.0025 71.7881 34.1125 72.8738 33.4896C73.9596 32.8666 75.2055 32.5551 76.6117 32.5551C78.3916 32.5551 79.86 32.9823 81.017 33.8366C82.1917 34.6732 82.9838 35.8746 83.3932 37.441H80.1092C79.8422 36.7112 79.4151 36.1416 78.8277 35.7323C78.2403 35.3229 77.5016 35.1182 76.6117 35.1182C75.3657 35.1182 74.369 35.5632 73.6214 36.4531C72.8916 37.3253 72.5268 38.5534 72.5268 40.1376C72.5268 41.7217 72.8916 42.9587 73.6214 43.8487C74.369 44.7387 75.3657 45.1836 76.6117 45.1836C78.3738 45.1836 79.5396 44.4094 80.1092 42.8608H83.3932C82.966 44.356 82.165 45.5485 80.9903 46.4385C79.8155 47.3106 78.356 47.7467 76.6117 47.7467C75.2055 47.7467 73.9596 47.4352 72.8738 46.8123C71.7881 46.1715 70.9337 45.2815 70.3108 44.1424C69.7056 42.9854 69.403 41.6505 69.403 40.1376Z" fill="#B39F93"/>
<path d="M91.4725 47.7467C90.0842 47.7467 88.8293 47.4352 87.708 46.8123C86.5866 46.1715 85.7055 45.2815 85.0648 44.1424C84.424 42.9854 84.1036 41.6505 84.1036 40.1376C84.1036 38.6424 84.4329 37.3164 85.0915 36.1594C85.75 35.0025 86.6489 34.1125 87.7881 33.4896C88.9272 32.8666 90.1999 32.5551 91.606 32.5551C93.0121 32.5551 94.2848 32.8666 95.4239 33.4896C96.5631 34.1125 97.4619 35.0025 98.1205 36.1594C98.7791 37.3164 99.1084 38.6424 99.1084 40.1376C99.1084 41.6327 98.7702 42.9587 98.0938 44.1157C97.4174 45.2726 96.4919 46.1715 95.3171 46.8123C94.1602 47.4352 92.8786 47.7467 91.4725 47.7467ZM91.4725 45.1035C92.2557 45.1035 92.9854 44.9166 93.6618 44.5429C94.356 44.1691 94.9166 43.6084 95.3438 42.8608C95.771 42.1133 95.9846 41.2055 95.9846 40.1376C95.9846 39.0696 95.7799 38.1707 95.3705 37.441C94.9611 36.6934 94.4183 36.1327 93.7419 35.759C93.0655 35.3852 92.3358 35.1983 91.5526 35.1983C90.7694 35.1983 90.0397 35.3852 89.3633 35.759C88.7047 36.1327 88.1796 36.6934 87.7881 37.441C87.3965 38.1707 87.2007 39.0696 87.2007 40.1376C87.2007 41.7217 87.6012 42.9498 88.4021 43.822C89.2209 44.6764 90.2443 45.1035 91.4725 45.1035Z" fill="#B39F93"/>
<path d="M104.333 35.2784V43.4215C104.333 43.9733 104.458 44.3738 104.707 44.623C104.974 44.8544 105.419 44.97 106.042 44.97H107.911V47.5064H105.508C104.137 47.5064 103.087 47.186 102.357 46.5453C101.628 45.9045 101.263 44.8633 101.263 43.4215V35.2784H99.5274V32.7954H101.263V29.175L104.333 27.5172V32.7954H107.911V35.2784H104.333Z" fill="#B39F93"/>
<path d="M122.864 39.7905C122.864 40.3423 122.828 40.8406 122.757 41.2856H111.517C111.606 42.4604 112.042 43.4037 112.825 44.1157C113.608 44.8277 114.57 45.1836 115.709 45.1836C117.346 45.1836 118.503 44.4984 119.18 43.1278H122.464C122.019 44.4806 121.209 45.593 120.034 46.4652C118.877 47.3195 117.435 47.7467 115.709 47.7467C114.303 47.7467 113.039 47.4352 111.918 46.8123C110.814 46.1715 109.942 45.2815 109.301 44.1424C108.678 42.9854 108.367 41.6505 108.367 40.1376C108.367 38.6246 108.669 37.2986 109.274 36.1594C109.897 35.0025 110.761 34.1125 111.864 33.4896C112.985 32.8666 114.267 32.5551 115.709 32.5551C117.097 32.5551 118.334 32.8577 119.42 33.4629C120.506 34.068 121.351 34.9224 121.956 36.0259C122.561 37.1117 122.864 38.3665 122.864 39.7905ZM119.687 38.8293C119.669 37.708 119.269 36.8091 118.485 36.1327C117.702 35.4564 116.732 35.1182 115.575 35.1182C114.525 35.1182 113.626 35.4564 112.879 36.1327C112.131 36.7913 111.686 37.6902 111.544 38.8293H119.687Z" fill="#B39F93"/>
<path d="M123.51 40.1376C123.51 38.6246 123.812 37.2986 124.418 36.1594C125.041 35.0025 125.895 34.1125 126.981 33.4896C128.066 32.8666 129.312 32.5551 130.718 32.5551C132.498 32.5551 133.967 32.9823 135.124 33.8366C136.299 34.6732 137.091 35.8746 137.5 37.441H134.216C133.949 36.7112 133.522 36.1416 132.935 35.7323C132.347 35.3229 131.608 35.1182 130.718 35.1182C129.473 35.1182 128.476 35.5632 127.728 36.4531C126.998 37.3253 126.634 38.5534 126.634 40.1376C126.634 41.7217 126.998 42.9587 127.728 43.8487C128.476 44.7387 129.473 45.1836 130.718 45.1836C132.481 45.1836 133.646 44.4094 134.216 42.8608H137.5C137.073 44.356 136.272 45.5485 135.097 46.4385C133.922 47.3106 132.463 47.7467 130.718 47.7467C129.312 47.7467 128.066 47.4352 126.981 46.8123C125.895 46.1715 125.041 45.2815 124.418 44.1424C123.812 42.9854 123.51 41.6505 123.51 40.1376Z" fill="#B39F93"/>
</svg>
