<svg width="100" height="14" viewBox="0 0 100 14" fill="none" xmlns="http://www.w3.org/2000/svg">
<g clip-path="url(#clip0_2009_4839)">
<path d="M98.0392 8.19901L95.6491 5.38257H97.9707L99.869 7.59953V8.19901H98.0392ZM91.6465 8.19901V0.0664062H98.1765C98.489 0.0664062 98.7712 0.141813 99.0228 0.292626C99.282 0.44344 99.4878 0.647037 99.6403 0.90342C99.8004 1.1598 99.8805 1.4388 99.8805 1.74044V3.84428C99.8805 4.14591 99.8004 4.42491 99.6403 4.6813C99.4878 4.93767 99.282 5.14127 99.0228 5.29208C98.7712 5.4429 98.489 5.5183 98.1765 5.5183L93.4191 5.52961V8.19901H91.6465ZM93.4191 3.75379H98.085V1.81962H93.4191V3.75379Z" fill="#D0D0D0"/>
<path d="M79.708 8.1986V1.72871C79.708 1.41955 79.7843 1.14054 79.9367 0.891701C80.0892 0.635319 80.295 0.431721 80.5543 0.280907C80.8135 0.130094 81.0956 0.0546875 81.4005 0.0546875H86.238C86.5506 0.0546875 86.8327 0.130094 87.0843 0.280907C87.3435 0.431721 87.5494 0.635319 87.7018 0.891701C87.8619 1.14054 87.942 1.41955 87.942 1.72871V8.1986H86.1465V5.57446H81.4806V8.1986H79.708ZM81.4806 3.80994H86.1465V1.8192H81.4806V3.80994Z" fill="#D0D0D0"/>
<path d="M68.3828 8.1982V0.0429688H70.1554V6.43368H76.6168V8.1982H68.3828Z" fill="#D0D0D0"/>
<path d="M58.1691 8.19861C57.864 8.19861 57.582 8.12319 57.3228 7.97238C57.0636 7.82157 56.8577 7.61797 56.7053 7.36159C56.5527 7.10521 56.4766 6.8262 56.4766 6.52458V1.72871C56.4766 1.41955 56.5527 1.14054 56.7053 0.891701C56.8577 0.635318 57.0636 0.43172 57.3228 0.280907C57.582 0.130094 57.864 0.0546875 58.1691 0.0546875H63.0179C63.3229 0.0546875 63.6012 0.130094 63.8528 0.280907C64.112 0.43172 64.3179 0.635318 64.4704 0.891701C64.6304 1.14054 64.7105 1.41955 64.7105 1.72871V6.52458C64.7105 6.8262 64.6304 7.10521 64.4704 7.36159C64.3179 7.61797 64.112 7.82157 63.8528 7.97238C63.6012 8.12319 63.3229 8.19861 63.0179 8.19861H58.1691ZM58.2491 6.43409H62.9151V1.8192H58.2491V6.43409Z" fill="#D0D0D0"/>
<path d="M44.6172 8.19861V0.0546875H50.8384C51.1434 0.0546875 51.4216 0.130094 51.6732 0.280907C51.9324 0.43172 52.1383 0.635318 52.2908 0.891701C52.4509 1.14054 52.5309 1.41955 52.5309 1.72871V3.2557C52.5309 3.35373 52.5233 3.44799 52.5081 3.53847C52.5005 3.62142 52.4814 3.7006 52.4509 3.77601C52.5652 3.91927 52.6606 4.08517 52.7369 4.27368C52.813 4.46221 52.8512 4.65072 52.8512 4.83924V6.52458C52.8512 6.8262 52.7711 7.10521 52.611 7.36159C52.4585 7.61797 52.2527 7.82157 51.9935 7.97238C51.7419 8.12319 51.4597 8.19861 51.1472 8.19861H44.6172ZM46.3898 6.43409H51.0557V4.94104H46.3898V6.43409ZM46.3898 3.17652H50.7354V1.8192H46.3898V3.17652Z" fill="#D0D0D0"/>
<path d="M32.6445 8.19861V1.72871C32.6445 1.41955 32.7208 1.14054 32.8733 0.891701C33.0257 0.635318 33.2315 0.43172 33.4908 0.280907C33.75 0.130094 34.0321 0.0546875 34.337 0.0546875H39.1746C39.4871 0.0546875 39.7692 0.130094 40.0208 0.280907C40.28 0.43172 40.4859 0.635318 40.6383 0.891701C40.7984 1.14054 40.8785 1.41955 40.8785 1.72871V8.19861H39.083V5.57445H34.4171V8.19861H32.6445ZM34.4171 3.80994H39.083V1.8192H34.4171V3.80994Z" fill="#D0D0D0"/>
<path d="M20.7383 8.19861V0.0546875H26.9595C27.2645 0.0546875 27.5428 0.130094 27.7943 0.280907C28.0535 0.43172 28.2594 0.635318 28.4119 0.891701C28.572 1.14054 28.6521 1.41955 28.6521 1.72871V3.2557C28.6521 3.35373 28.6445 3.44799 28.6292 3.53847C28.6216 3.62142 28.6025 3.7006 28.572 3.77601C28.6863 3.91927 28.7817 4.08517 28.8579 4.27368C28.9341 4.46221 28.9722 4.65072 28.9722 4.83924V6.52458C28.9722 6.8262 28.8922 7.10521 28.7321 7.36159C28.5796 7.61797 28.3738 7.82157 28.1146 7.97238C27.863 8.12319 27.5808 8.19861 27.2683 8.19861H20.7383ZM22.5109 6.43409H27.1768V4.94104H22.5109V6.43409ZM22.5109 3.17652H26.8566V1.8192H22.5109V3.17652Z" fill="#D0D0D0"/>
<path d="M7.64844 0.595422C7.64844 0.281681 7.90278 0.0273438 8.21652 0.0273438H13.2579C13.5717 0.0273438 13.826 0.281681 13.826 0.595424V5.63682C13.826 5.95056 13.5717 6.2049 13.2579 6.2049H8.21652C7.90278 6.2049 7.64844 5.95056 7.64844 5.63682V0.595422Z" fill="#B39F93"/>
<path d="M7.64844 8.24386C7.64844 7.93012 7.90278 7.67578 8.21652 7.67578H13.2579C13.5717 7.67578 13.826 7.93012 13.826 8.24386V13.2852C13.826 13.599 13.5717 13.8533 13.2579 13.8533H8.21652C7.90278 13.8533 7.64844 13.599 7.64844 13.2852V8.24386Z" fill="#B39F93"/>
<path d="M0.56808 13.8533C0.254337 13.8533 5.68403e-07 13.5989 5.54689e-07 13.2852L0 0.595424C-1.37141e-08 0.281682 0.254337 0.027344 0.56808 0.027344L5.60948 0.0273438C5.92322 0.0273437 6.17756 0.281682 6.17756 0.595424V13.2852C6.17756 13.5989 5.92322 13.8533 5.60948 13.8533H0.56808Z" fill="#B39F93"/>
<path d="M99.4993 13.8537L98.9824 12.9591H98.7013V13.8537H98.333V11.6172H99.1083C99.2807 11.6172 99.4261 11.6472 99.5446 11.7073C99.6652 11.7674 99.7546 11.8478 99.8127 11.9486C99.8731 12.0494 99.9032 12.1621 99.9032 12.2865C99.9032 12.4324 99.8601 12.5654 99.7739 12.6856C99.69 12.8036 99.5596 12.884 99.3829 12.9269L99.9387 13.8537H99.4993ZM98.7013 12.6662H99.1083C99.2462 12.6662 99.3496 12.6319 99.4186 12.5633C99.4896 12.4946 99.5251 12.4024 99.5251 12.2865C99.5251 12.1707 99.4907 12.0805 99.4218 12.0162C99.3528 11.9497 99.2484 11.9165 99.1083 11.9165H98.7013V12.6662Z" fill="#D0D0D0"/>
<path d="M94.7453 11.9126V12.5691H95.5207V12.8683H94.7453V13.5538H95.6176V13.8531H94.377V11.6133H95.6176V11.9126H94.7453Z" fill="#D0D0D0"/>
<path d="M91.632 11.6172V13.8537H91.2637V11.6172H91.632Z" fill="#D0D0D0"/>
<path d="M87.9347 13.5577H88.6939V13.8537H87.5664V11.6172H87.9347V13.5577Z" fill="#D0D0D0"/>
<path d="M83.9786 11.9126V12.5691H84.7541V12.8683H83.9786V13.5538H84.851V13.8531H83.6104V11.6133H84.851V11.9126H83.9786Z" fill="#D0D0D0"/>
<path d="M80.9752 11.6172V11.9165H80.3775V13.8537H80.0092V11.9165H79.4082V11.6172H80.9752Z" fill="#D0D0D0"/>
<path d="M76.3651 13.3961H75.4249L75.2634 13.8531H74.8789L75.6834 11.6133H76.1099L76.9144 13.8531H76.5267L76.3651 13.3961ZM76.2617 13.0968L75.8967 12.0574L75.5284 13.0968H76.2617Z" fill="#D0D0D0"/>
<path d="M68.7753 12.2605C68.7171 12.1489 68.6363 12.0652 68.5329 12.0094C68.4296 11.9515 68.3101 11.9226 68.1743 11.9226C68.0257 11.9226 67.8933 11.9558 67.7769 12.0223C67.6606 12.0888 67.5691 12.1832 67.5023 12.3055C67.4377 12.4278 67.4054 12.5694 67.4054 12.7303C67.4054 12.8912 67.4377 13.0339 67.5023 13.1583C67.5691 13.2806 67.6606 13.375 67.7769 13.4415C67.8933 13.508 68.0257 13.5413 68.1743 13.5413C68.3747 13.5413 68.5372 13.4855 68.6621 13.3739C68.7871 13.2624 68.8636 13.1111 68.8916 12.9202H68.0483V12.6273H69.2857V12.9137C69.262 13.0875 69.1996 13.2473 69.0984 13.3932C68.9992 13.5391 68.8689 13.656 68.7074 13.744C68.548 13.8298 68.3704 13.8727 68.1743 13.8727C67.9632 13.8727 67.7705 13.8245 67.596 13.7279C67.4215 13.6292 67.2826 13.493 67.1792 13.3192C67.078 13.1454 67.0273 12.9491 67.0273 12.7303C67.0273 12.5115 67.078 12.3152 67.1792 12.1414C67.2826 11.9676 67.4215 11.8325 67.596 11.7359C67.7726 11.6372 67.9654 11.5879 68.1743 11.5879C68.4134 11.5879 68.6256 11.6469 68.8108 11.7649C68.9981 11.8807 69.1339 12.0459 69.2179 12.2605H68.7753Z" fill="#D0D0D0"/>
<path d="M64.4034 13.8531H64.0351L62.9269 12.1829V13.8531H62.5586V11.6133H62.9269L64.0351 13.2803V11.6133H64.4034V13.8531Z" fill="#D0D0D0"/>
<path d="M59.8136 11.6172V13.8537H59.4453V11.6172H59.8136Z" fill="#D0D0D0"/>
<path d="M56.3771 13.8537L55.5079 12.8529V13.8537H55.1396V11.6172H55.5079V12.6373L56.3803 11.6172H56.8423L55.8666 12.737L56.8585 13.8537H56.3771Z" fill="#D0D0D0"/>
<path d="M52.0023 13.8537L51.4854 12.9591H51.2044V13.8537H50.8359V11.6172H51.6114C51.7837 11.6172 51.9291 11.6472 52.0475 11.7073C52.1681 11.7674 52.2575 11.8478 52.3157 11.9486C52.376 12.0494 52.4061 12.1621 52.4061 12.2865C52.4061 12.4324 52.3631 12.5654 52.2769 12.6856C52.1929 12.8036 52.0626 12.884 51.886 12.9269L52.4418 13.8537H52.0023ZM51.2044 12.6662H51.6114C51.7493 12.6662 51.8526 12.6319 51.9215 12.5633C51.9927 12.4946 52.0282 12.4024 52.0282 12.2865C52.0282 12.1707 51.9937 12.0805 51.9247 12.0162C51.8558 11.9497 51.7514 11.9165 51.6114 11.9165H51.2044V12.6662Z" fill="#D0D0D0"/>
<path d="M47.0649 13.8759C46.856 13.8759 46.6631 13.8277 46.4865 13.7311C46.3121 13.6324 46.1732 13.4962 46.0698 13.3224C45.9685 13.1465 45.918 12.9491 45.918 12.7303C45.918 12.5115 45.9685 12.3152 46.0698 12.1414C46.1732 11.9676 46.3121 11.8325 46.4865 11.7359C46.6631 11.6372 46.856 11.5879 47.0649 11.5879C47.276 11.5879 47.4687 11.6372 47.6432 11.7359C47.8199 11.8325 47.9587 11.9676 48.06 12.1414C48.1612 12.3152 48.2119 12.5115 48.2119 12.7303C48.2119 12.9491 48.1612 13.1465 48.06 13.3224C47.9587 13.4962 47.8199 13.6324 47.6432 13.7311C47.4687 13.8277 47.276 13.8759 47.0649 13.8759ZM47.0649 13.5574C47.2136 13.5574 47.346 13.5241 47.4623 13.4576C47.5786 13.3889 47.6691 13.2924 47.7337 13.168C47.8004 13.0414 47.8338 12.8955 47.8338 12.7303C47.8338 12.5651 47.8004 12.4203 47.7337 12.2959C47.6691 12.1714 47.5786 12.0759 47.4623 12.0094C47.346 11.943 47.2136 11.9097 47.0649 11.9097C46.9163 11.9097 46.7838 11.943 46.6674 12.0094C46.5512 12.0759 46.4597 12.1714 46.3928 12.2959C46.3282 12.4203 46.2959 12.5651 46.2959 12.7303C46.2959 12.8955 46.3282 13.0414 46.3928 13.168C46.4597 13.2924 46.5512 13.3889 46.6674 13.4576C46.7838 13.5241 46.9163 13.5574 47.0649 13.5574Z" fill="#D0D0D0"/>
<path d="M43.476 11.6172L42.8104 13.8537H42.3936L41.922 12.161L41.4212 13.8537L41.0076 13.8569L40.3711 11.6172H40.762L41.2274 13.4386L41.7313 11.6172H42.1449L42.6134 13.4289L43.0818 11.6172H43.476Z" fill="#D0D0D0"/>
<path d="M36.7335 11.6172C36.9726 11.6172 37.1815 11.6633 37.3602 11.7556C37.5411 11.8457 37.6801 11.9765 37.777 12.1481C37.8762 12.3176 37.9256 12.5161 37.9256 12.7435C37.9256 12.9709 37.8762 13.1683 37.777 13.3356C37.6801 13.503 37.5411 13.6317 37.3602 13.7218C37.1815 13.8098 36.9726 13.8537 36.7335 13.8537H36V11.6172H36.7335ZM36.7335 13.5544C36.9962 13.5544 37.1976 13.4836 37.3377 13.3421C37.4776 13.2005 37.5477 13.0009 37.5477 12.7435C37.5477 12.4839 37.4776 12.2811 37.3377 12.1353C37.1976 11.9894 36.9962 11.9165 36.7335 11.9165H36.3684V13.5544H36.7335Z" fill="#D0D0D0"/>
<path d="M32.229 13.8759C32.0201 13.8759 31.8273 13.8277 31.6507 13.7311C31.4762 13.6324 31.3373 13.4962 31.2339 13.3224C31.1327 13.1465 31.082 12.9491 31.082 12.7303C31.082 12.5115 31.1327 12.3152 31.2339 12.1414C31.3373 11.9676 31.4762 11.8325 31.6507 11.7359C31.8273 11.6372 32.0201 11.5879 32.229 11.5879C32.4401 11.5879 32.6329 11.6372 32.8074 11.7359C32.9839 11.8325 33.1229 11.9676 33.2241 12.1414C33.3254 12.3152 33.376 12.5115 33.376 12.7303C33.376 12.9491 33.3254 13.1465 33.2241 13.3224C33.1229 13.4962 32.9839 13.6324 32.8074 13.7311C32.6329 13.8277 32.4401 13.8759 32.229 13.8759ZM32.229 13.5574C32.3776 13.5574 32.5102 13.5241 32.6265 13.4576C32.7427 13.3889 32.8332 13.2924 32.8979 13.168C32.9646 13.0414 32.998 12.8955 32.998 12.7303C32.998 12.5651 32.9646 12.4203 32.8979 12.2959C32.8332 12.1714 32.7427 12.0759 32.6265 12.0094C32.5102 11.943 32.3776 11.9097 32.229 11.9097C32.0804 11.9097 31.9479 11.943 31.8316 12.0094C31.7153 12.0759 31.6237 12.1714 31.557 12.2959C31.4924 12.4203 31.4601 12.5651 31.4601 12.7303C31.4601 12.8955 31.4924 13.0414 31.557 13.168C31.6237 13.2924 31.7153 13.3889 31.8316 13.4576C31.9479 13.5241 32.0804 13.5574 32.229 13.5574Z" fill="#D0D0D0"/>
<path d="M27.4341 13.8759C27.2251 13.8759 27.0323 13.8277 26.8558 13.7311C26.6813 13.6324 26.5423 13.4962 26.439 13.3224C26.3376 13.1465 26.2871 12.9491 26.2871 12.7303C26.2871 12.5115 26.3376 12.3152 26.439 12.1414C26.5423 11.9676 26.6813 11.8325 26.8558 11.7359C27.0323 11.6372 27.2251 11.5879 27.4341 11.5879C27.6452 11.5879 27.8379 11.6372 28.0124 11.7359C28.189 11.8325 28.3279 11.9676 28.4292 12.1414C28.5304 12.3152 28.581 12.5115 28.581 12.7303C28.581 12.9491 28.5304 13.1465 28.4292 13.3224C28.3279 13.4962 28.189 13.6324 28.0124 13.7311C27.8379 13.8277 27.6452 13.8759 27.4341 13.8759ZM27.4341 13.5574C27.5827 13.5574 27.7151 13.5241 27.8314 13.4576C27.9478 13.3889 28.0382 13.2924 28.1028 13.168C28.1696 13.0414 28.203 12.8955 28.203 12.7303C28.203 12.5651 28.1696 12.4203 28.1028 12.2959C28.0382 12.1714 27.9478 12.0759 27.8314 12.0094C27.7151 11.943 27.5827 11.9097 27.4341 11.9097C27.2854 11.9097 27.1529 11.943 27.0367 12.0094C26.9204 12.0759 26.8288 12.1714 26.762 12.2959C26.6974 12.4203 26.6651 12.5651 26.6651 12.7303C26.6651 12.8955 26.6974 13.0414 26.762 13.168C26.8288 13.2924 26.9204 13.3889 27.0367 13.4576C27.1529 13.5241 27.2854 13.5574 27.4341 13.5574Z" fill="#D0D0D0"/>
<path d="M23.8432 11.6172L23.1776 13.8537H22.7608L22.2891 12.161L21.7883 13.8537L21.3748 13.8569L20.7383 11.6172H21.1292L21.5944 13.4386L22.0985 11.6172H22.5121L22.9805 13.4289L23.449 11.6172H23.8432Z" fill="#D0D0D0"/>
</g>
<defs>
<clipPath id="clip0_2009_4839">
<rect width="100" height="13.9452" fill="white" transform="translate(0 0.0273438)"/>
</clipPath>
</defs>
</svg>
