<svg width="176" height="76" viewBox="0 0 176 76" fill="none" xmlns="http://www.w3.org/2000/svg">
<path fill-rule="evenodd" clip-rule="evenodd" d="M60.7471 27.9301H63.8294C65.5235 27.9301 66.9824 28.0008 67.0765 28.0952C67.1706 28.1896 66.7706 29.6288 66.1824 31.304C65.6176 32.9557 65.1471 34.3477 65.1471 34.4185C65.1471 34.4893 65.7588 34.2533 66.4882 33.923C67.2412 33.5691 68.4412 33.2388 69.1471 33.168C69.9235 33.0972 70.8176 33.1916 71.3824 33.3804C71.9 33.5455 72.6529 34.0174 73.0529 34.4185C73.5471 34.8668 73.9471 35.6218 74.2059 36.542C74.5588 37.7453 74.5823 38.1936 74.3706 39.4913C74.2294 40.3407 73.6882 41.8743 73.1471 42.9833C72.5588 44.1866 71.7118 45.4607 70.8412 46.3572C69.9941 47.2774 68.9824 48.056 68.0882 48.4807C67.1941 48.9054 66.1118 49.2358 65.1471 49.3301C64.0412 49.4245 63.2882 49.3537 62.4412 49.0942C61.7824 48.8818 61.0529 48.4807 60.7941 48.2212C60.5353 47.9617 60.2529 47.7257 60.1353 47.7493C60.0412 47.7493 59.9235 48.0089 59.7353 48.929H56.6765C54.3941 48.929 53.6176 48.8582 53.6176 48.6223C53.6176 48.4807 55.2176 43.7383 57.1941 38.1228L60.7471 27.9301ZM63.0765 39.916C62.6529 40.4587 62.2529 41.3081 62.1588 41.8035C62.0882 42.299 62.1353 42.9597 62.2765 43.29C62.4176 43.5967 62.8176 44.0214 63.1941 44.1866C63.7588 44.4697 63.9706 44.4461 64.8882 44.045C65.4765 43.7855 66.3 43.1956 66.7235 42.7237C67.1471 42.2518 67.5941 41.4732 67.7588 40.9777C67.9 40.4823 67.9471 39.798 67.8765 39.4441C67.7824 39.0902 67.5 38.5711 67.2412 38.3352C66.9824 38.0756 66.4882 37.8633 66.1118 37.8633C65.7588 37.8633 65.1 38.0992 64.6529 38.3824C64.2059 38.6891 63.5 39.3733 63.0765 39.916ZM79.3588 27.9536H82.6059C84.3941 27.9536 85.8294 28.0244 85.8294 28.1188C85.8529 28.2132 84.2059 32.9085 78.5824 48.8347L75.3824 48.8818C72.3706 48.929 72.2059 48.9054 72.2529 48.4807C72.2765 48.2448 73.9 43.5259 75.8294 38.0048L79.3588 27.9536ZM113.194 33.3804C113.806 33.3568 114.7 33.5219 115.194 33.7343C115.688 33.9466 116.347 34.4185 117.241 35.4331L119.006 34.5837C120.512 33.8286 121.006 33.7107 122.653 33.6399C124.276 33.5927 124.676 33.6635 125.476 34.1118C125.994 34.4185 126.653 35.032 126.959 35.4802C127.335 36.0465 127.5 36.66 127.5 37.3678C127.5 38.0756 126.888 40.1755 123.829 48.929H120.606C118.818 48.929 117.359 48.8583 117.359 48.7639C117.359 48.6695 118.065 46.5696 118.912 44.0922C120.394 39.7036 120.418 39.6093 120.018 39.043C119.665 38.5711 119.476 38.5003 118.771 38.6419C118.324 38.7127 117.782 38.9722 117.547 39.2082C117.335 39.4205 116.394 41.6856 115.5 44.2102C114.582 46.7348 113.829 48.8347 113.829 48.8818C113.829 48.9054 112.347 48.929 110.535 48.929C108.065 48.929 107.241 48.8583 107.241 48.6459C107.241 48.4807 107.924 46.4044 108.771 44.045C109.618 41.662 110.3 39.5621 110.3 39.3733C110.3 39.1846 110.159 38.8542 109.947 38.6655C109.759 38.4767 109.335 38.3116 109.006 38.3116C108.7 38.3116 108.112 38.6183 107.735 38.9722C107.171 39.4677 106.676 40.6002 103.782 48.8111L100.559 48.8818C98.8176 48.9054 97.3588 48.8583 97.3588 48.7639C97.3588 48.6695 98.5118 45.3191 102.418 34.0646H105.429C108.276 34.0646 108.418 34.0882 108.418 34.5365C108.418 34.9848 108.465 35.0084 109.076 34.6073C109.429 34.3949 110.253 34.041 110.888 33.805C111.547 33.5691 112.582 33.3804 113.194 33.3804ZM85.0059 33.8286H88.0176C89.8529 33.8286 91.0059 33.923 91.0059 34.0646C91.0059 34.2062 90.3235 36.2117 89.4765 38.5475C88.6529 40.8834 87.9471 43.0068 87.9471 43.2664C87.9471 43.5259 88.2294 43.9034 88.5353 44.0922C88.9823 44.3753 89.3118 44.3989 89.9 44.2338C90.3235 44.0922 90.9353 43.7147 91.2412 43.3844C91.6176 42.9833 92.4412 41.1429 94.9588 34.1826L98.0412 34.1354C99.7353 34.0882 101.147 34.159 101.147 34.2533C101.147 34.3477 99.9941 37.6981 96.0647 48.929H90.3L90.3706 48.3392C90.3941 48.0324 90.3706 47.7965 90.3 47.8201C90.2529 47.8673 89.5471 48.1976 88.7706 48.5751C87.6882 49.1178 86.9588 49.2829 85.5941 49.3537C84.2529 49.4009 83.6412 49.3301 83.0294 48.9998C82.5824 48.7639 82.0176 48.2684 81.7353 47.9145C81.3588 47.419 81.2412 46.8999 81.2412 45.791C81.2647 44.5641 81.5471 43.4787 83.1235 39.0902L85.0059 33.8286ZM53.3588 33.1208C53.4294 33.0972 53.6882 33.2388 53.9235 33.4039C54.2529 33.6399 54.4412 34.4421 54.7941 37.179C55.1235 39.6329 55.1941 40.8126 55.0294 41.1429C54.8882 41.4024 54.6294 41.6148 54.4412 41.6148C54.2529 41.6148 53.7353 41.3552 53.3118 41.0249C52.8882 40.6946 52.5118 40.4351 52.4412 40.4351C52.3706 40.4115 51.6412 42.3226 50.7941 44.682C49.9471 47.0179 49.1706 48.929 49.0765 48.929C48.9824 48.929 48.8412 48.7875 48.7941 48.6223C48.7235 48.4571 49.3353 46.4516 50.1353 44.1394C51.1941 41.1429 51.7588 39.8688 52.0882 39.68C52.4647 39.4913 52.7235 39.5621 53.3824 40.0576C54.1118 40.6002 54.2059 40.6238 54.2765 40.2463C54.3 40.034 54.1824 38.5711 53.9706 37.0139C53.7824 35.4567 53.5706 34.1118 53.5 34.0646C53.4059 33.9938 52.2765 35.032 48.5588 38.7835L49.6176 38.7599C50.3235 38.7599 50.7941 38.8936 51.0294 39.161C51.3353 39.5149 51.2882 39.8216 50.4647 42.181C49.9706 43.6203 49.2412 45.673 48.8882 46.7348C48.4412 48.0089 48.0882 48.6931 47.8529 48.6931C47.6647 48.6931 47.5 48.5515 47.5 48.3864C47.5235 48.2212 48.1824 46.2393 50.4882 39.8452L49.5235 39.7036C48.9824 39.6565 48.4176 39.5149 48.2529 39.4205C48.0882 39.3261 47.9471 38.9958 47.9471 38.6891C47.9235 38.2408 48.5353 37.533 50.5588 35.6218C52.0176 34.2297 53.2647 33.1208 53.3588 33.1208Z" fill="#B39F93"/>
</svg>
