<svg width="176" height="76" viewBox="0 0 176 76" fill="none" xmlns="http://www.w3.org/2000/svg">
<path d="M37.5246 18.758L37.5614 22.8244L43.4705 22.8121C50.215 22.8121 50.645 22.8489 51.3452 23.5983C51.9963 24.2863 52.1192 25.2445 52.1192 29.5688C52.1192 34.5688 51.9595 35.3797 50.817 35.9448C50.3256 36.1905 50.1413 36.2028 43.9005 36.2028H37.5V45.0848L38.9005 46.4485C41.7015 49.1757 48.5688 55.8956 51.5663 58.844L54.6376 61.8661H60.9029L67.1683 61.8784L66.5541 61.301C66.2224 60.9816 65.0921 59.9251 64.0479 58.9423C63.0037 57.9595 62.0946 57.0873 62.0086 57.0258C61.6155 56.6696 57.844 53.1561 56.2961 51.6819C56.1118 51.5099 55.3747 50.8219 54.6376 50.1462C53.9005 49.4706 53.1511 48.7826 52.9791 48.6106C52.8071 48.4386 51.812 47.505 50.7924 46.5344C49.3305 45.1462 48.9619 44.7285 49.0602 44.5934C49.1708 44.4706 49.6867 44.4337 51.2224 44.4337C53.1143 44.4337 54.9201 44.2249 55.6204 43.9423C55.7555 43.8809 56.0012 43.7949 56.1732 43.7457C57.7211 43.3281 59.3673 41.9153 60.129 40.3551C60.8292 38.9423 61.0258 38.2298 61.2101 36.5099C61.3452 35.2322 61.3452 23.9055 61.2101 22.6278C61.0872 21.5467 60.8415 20.3551 60.6204 19.8268C60.5344 19.6303 60.473 19.4337 60.473 19.3723C60.473 19.2617 60.0799 18.4878 59.9693 18.3895C59.9324 18.3526 59.785 18.1315 59.6376 17.8981C59.3796 17.4681 58.4214 16.5099 57.9545 16.2028C57.8194 16.129 57.4017 15.9079 57.0332 15.7359C54.8464 14.7285 54.7604 14.7163 45.3256 14.7163L37.5 14.704L37.5246 18.758ZM76.1364 22.4558C75.5221 22.6032 75.3378 22.8367 75.3378 23.5123C75.3378 23.9792 75.387 24.0774 75.7432 24.2863C76.2838 24.618 77.9668 24.6303 78.5197 24.3109C79.1462 23.9669 79.183 23.0086 78.5934 22.6155C78.2371 22.3821 76.7998 22.2838 76.1364 22.4558ZM114.625 22.4313C113.95 22.5787 113.79 22.7629 113.79 23.4263C113.79 23.9669 113.827 24.0406 114.208 24.274C114.539 24.4828 114.822 24.532 115.633 24.532C116.763 24.532 117.254 24.3109 117.402 23.7212C117.525 23.2666 117.279 22.6032 116.947 22.5172C116.456 22.3821 115.092 22.333 114.625 22.4313ZM88.9251 22.8858C88.8882 22.9964 88.8513 25.8833 88.8513 29.3231C88.8513 34.9005 88.8759 35.5762 89.0479 35.6376C89.2936 35.7359 91.6032 35.7359 91.8489 35.6376C92.0209 35.5762 92.0455 35.1954 92.0455 32.6524C92.0577 29.274 92.1192 28.8195 92.6474 28.2912C92.9668 27.9841 93.1265 27.9104 93.5811 27.9104C94.0356 27.9104 94.1953 27.9841 94.527 28.3158L94.9324 28.7089L94.9693 32.2101L95.0061 35.7113H98.0651V31.3133C98.0651 27.1733 98.0528 26.8784 97.8194 26.4239C97.2543 25.2937 96.8612 25.0848 95.301 25.0848C94.1585 25.0848 94.0356 25.1094 93.5442 25.4288C93.2494 25.6131 92.9054 25.9571 92.7703 26.1905C92.5491 26.559 92.328 26.731 92.07 26.7433C92.0209 26.7433 92.0086 25.9448 92.0332 24.9742C92.0577 24.0037 92.0332 23.0946 91.984 22.9472C91.9103 22.7015 91.8243 22.6892 90.4484 22.6892C89.2445 22.6892 88.9865 22.7261 88.9251 22.8858ZM109.306 22.8367C109.269 22.9227 109.257 25.8465 109.269 29.3231L109.306 35.6499L110.473 35.6868C111.112 35.7113 111.812 35.6991 112.009 35.6622L112.377 35.5885L112.365 29.2986C112.353 25.8342 112.34 22.9227 112.328 22.8367C112.316 22.7261 111.935 22.6892 110.842 22.6892C109.773 22.6892 109.343 22.7261 109.306 22.8367ZM65.129 23.3158C64.9816 23.4018 64.9693 35.4656 65.1167 35.6131C65.1781 35.6745 65.8292 35.6991 66.5663 35.6868L67.9054 35.6499L67.9423 33.2789C67.9545 31.7679 68.016 30.9202 68.102 30.9202C68.2494 30.9202 68.8268 31.5222 68.8268 31.6819C68.8268 31.731 68.9619 31.989 69.1216 32.247C69.2813 32.4927 69.5762 33.0086 69.7727 33.3772C69.9693 33.7457 70.3501 34.4214 70.6204 34.876L71.0995 35.7113H72.7826C73.7776 35.7113 74.4902 35.6622 74.5393 35.5885C74.5762 35.5148 73.8636 34.3354 72.9545 32.9595C72.0332 31.5959 71.2838 30.4042 71.2838 30.3305C71.2838 30.2568 71.4926 30.1585 71.7506 30.1094C72.8808 29.9128 73.8513 29.0897 74.269 27.9718C74.4902 27.3698 74.5639 25.3428 74.3673 25.22C74.3059 25.1831 74.2199 24.9988 74.1708 24.8145C74.0602 24.3723 73.4091 23.7703 72.7948 23.5492C72.4509 23.4263 71.3821 23.3526 68.7899 23.3035C66.8366 23.2666 65.1904 23.2789 65.129 23.3158ZM71.0504 25.9939C71.3329 26.2887 71.4066 26.4607 71.4066 26.8907C71.4066 27.9841 70.7924 28.4632 69.4165 28.4632C68.9619 28.4632 68.4582 28.4141 68.2862 28.3403C67.9668 28.2298 67.9668 28.2052 67.9668 27.0013C67.9668 26.1413 68.016 25.7605 68.1265 25.7236C68.2002 25.6868 68.8145 25.6499 69.4779 25.6499C70.6572 25.6376 70.6941 25.6499 71.0504 25.9939ZM83.3231 25.1462C81.7629 25.4779 80.5713 26.7187 80.1167 28.4632C79.8587 29.4214 79.8464 31.3502 80.0676 32.2593C80.7064 34.7654 82.156 35.9571 84.5516 35.9571C85.5958 35.9571 86.1609 35.8096 87.0946 35.3059C87.758 34.9497 87.8685 34.6794 87.8685 33.3526C87.8685 32.6892 87.8194 32.1487 87.7703 32.1487C87.7088 32.1487 87.5614 32.2715 87.4263 32.4067C87.0455 32.8367 86.0381 33.2543 85.3501 33.2543C84.7604 33.2543 83.9988 32.9595 83.6179 32.591C82.6966 31.6696 82.7334 29.3723 83.6794 28.6106C84.0479 28.3035 84.9447 27.9718 85.3624 27.9718C85.9644 27.9718 87.0086 28.3403 87.3649 28.6598C87.5369 28.8195 87.7088 28.9177 87.7703 28.8809C87.8194 28.844 87.8685 28.1806 87.8685 27.4067V26.0062L87.2912 25.6376C86.9717 25.4288 86.5172 25.2077 86.2715 25.1462C85.7801 25.0111 83.9619 25.0111 83.3231 25.1462ZM102.316 25.1094C101.8 25.1954 100.67 25.8342 100.252 26.2887C99.4165 27.1978 99.0479 28.4878 99.0479 30.5762C99.0479 33.0455 99.613 34.3969 101.014 35.2814C102.697 36.3379 105.866 36.1536 107.193 34.9251C107.5 34.6426 107.525 34.5443 107.525 33.6229C107.525 32.8612 107.488 32.6524 107.377 32.7138C107.291 32.7752 106.984 32.9718 106.701 33.1561C106.075 33.586 105.006 33.7949 104.085 33.6843C103.114 33.5615 102.389 33.0701 101.947 32.2224C101.603 31.559 101.714 31.5344 105.006 31.5344H107.991L108.077 30.7482C108.163 29.9005 108.041 27.9964 107.893 27.7875C107.844 27.7138 107.758 27.4927 107.721 27.2715C107.672 27.0627 107.549 26.817 107.451 26.731C107.353 26.6573 107.279 26.5344 107.279 26.473C107.279 26.2887 106.517 25.6376 105.989 25.3674C105.596 25.1585 105.227 25.1094 104.085 25.0848C103.311 25.0602 102.512 25.0725 102.316 25.1094ZM104.982 27.7138C105.571 27.9841 105.891 28.3158 106.001 28.7703C106.149 29.3723 105.94 29.446 103.974 29.446C102.107 29.446 101.873 29.3846 101.873 28.93C101.873 28.6352 102.869 27.6401 103.237 27.5664C103.9 27.4435 104.502 27.4927 104.982 27.7138ZM121.652 25.0971C121.48 25.134 121.173 25.2445 120.952 25.3428C120.743 25.4411 120.534 25.5148 120.498 25.5148C120.203 25.5148 119.134 26.6573 118.864 27.247C117.819 29.4829 118.09 33.0946 119.404 34.5566C120.24 35.4902 121.493 35.9571 123.151 35.9571C124.625 35.9448 125.694 35.6008 126.48 34.876C126.787 34.5811 126.812 34.4951 126.812 33.5123V32.4681L126.48 32.7875C125.289 33.8932 122.942 34.0529 121.886 33.0946C121.419 32.677 120.94 31.8293 121.1 31.6819C121.136 31.6327 122.549 31.5713 124.208 31.5344L127.242 31.473L127.23 29.6303C127.217 28.1561 127.181 27.7138 127.021 27.419C126.91 27.2101 126.812 26.989 126.812 26.9153C126.812 26.6573 125.829 25.6622 125.313 25.3919C124.871 25.1708 124.539 25.1094 123.372 25.0848C122.598 25.0602 121.824 25.0725 121.652 25.0971ZM123.839 27.5541C124.048 27.6032 124.441 27.8244 124.724 28.0578C125.117 28.3895 125.215 28.5615 125.215 28.8932C125.215 29.1512 125.141 29.3231 125.018 29.3723C124.638 29.5197 121.468 29.4583 121.308 29.2986C121.063 29.0529 121.136 28.7457 121.529 28.3035C122.156 27.5787 122.856 27.3575 123.839 27.5541ZM128.323 25.4165C128.237 25.5148 128.188 26.8047 128.188 29.0037C128.176 34.102 128.397 35.0971 129.662 35.7113C130.362 36.0553 131.738 36.0553 132.439 35.7113C132.991 35.4411 133.814 34.6671 133.814 34.3969C133.814 34.2126 134.244 33.7457 134.429 33.7457C134.502 33.7457 134.552 34.1266 134.552 34.6548C134.552 35.3674 134.588 35.5762 134.748 35.6376C134.859 35.6745 135.522 35.7113 136.222 35.7113H137.5V25.2691H135.977C134.674 25.2691 134.441 25.2937 134.38 25.4657C134.33 25.5885 134.306 27.0013 134.306 28.6352C134.318 31.0553 134.294 31.6573 134.134 31.9644C133.864 32.4927 133.483 32.8735 133.127 32.9595C132.475 33.1192 131.603 32.7384 131.603 32.2715C131.603 32.161 131.554 32.0258 131.48 31.9521C131.407 31.8784 131.345 30.5025 131.333 28.586L131.296 25.3305L129.871 25.2937C128.827 25.2691 128.409 25.3059 128.323 25.4165ZM75.5098 25.5271C75.4853 25.5639 75.473 27.8489 75.473 30.5885V35.5762L75.8661 35.6499C76.0872 35.6868 76.7875 35.7113 77.4263 35.6868L78.5934 35.6499V25.4902L77.0823 25.4657C76.2469 25.4657 75.5344 25.4902 75.5098 25.5271ZM114.085 25.5762C114.048 25.6499 114.048 27.9349 114.06 30.6745L114.097 35.6499L115.387 35.6868C116.1 35.7113 116.8 35.6868 116.959 35.6499L117.23 35.5885L117.205 30.5271L117.168 25.4779L115.645 25.4657C114.736 25.4534 114.109 25.5025 114.085 25.5762Z" fill="#B39F93"/>
</svg>
