<svg width="176" height="76" viewBox="0 0 176 76" fill="none" xmlns="http://www.w3.org/2000/svg">
<path fill-rule="evenodd" clip-rule="evenodd" d="M23.0873 26.8417L25.0947 27.1468C26.2293 27.2776 27.9312 27.8008 28.8912 28.1931C29.8513 28.6291 30.9423 29.283 31.2914 29.719C31.8587 30.3729 31.815 30.5473 30.855 31.55C30.244 32.1167 28.8912 32.9014 27.8003 33.2502C26.7093 33.599 25.2692 33.9041 23.2182 34.1221L23.0873 26.8417ZM36.7462 29.9805C36.8771 29.9805 37.4008 30.9396 37.9245 32.0731C38.6663 33.6425 38.8845 34.994 38.9282 37.6097C38.9282 39.5279 38.71 41.8821 38.4045 42.8412C38.099 43.8003 37.2699 45.5441 35.2189 48.7265H23V38.2637L25.9674 37.8277C27.5821 37.5661 29.8513 36.9122 31.0295 36.3891C32.2078 35.8659 33.9097 34.6016 34.8698 33.599C35.7862 32.5963 36.528 31.332 36.528 30.8524C36.528 30.3729 36.6153 29.9805 36.7462 29.9805ZM45.3431 27.2776L50.0561 27.452C54.4199 27.5828 54.9 27.67 55.9037 28.6727C56.5146 29.283 57.1255 30.3293 57.2565 30.9832C57.3874 31.6372 57.1692 32.8578 56.8201 33.6861C56.471 34.558 55.86 35.3428 55.5109 35.43C55.0309 35.6043 55.1618 35.9095 56.1655 36.7378C56.9074 37.3482 57.6056 38.3944 57.7365 39.0484C57.8674 39.7023 57.7801 40.923 57.5183 41.7513C57.2565 42.7104 56.5582 43.5823 55.7291 44.0618C54.7254 44.6722 53.4162 44.803 45.2558 44.803L45.3431 27.2776ZM49.1833 32.5963C49.1833 34.2965 49.2269 34.3837 50.5797 34.3401C51.3652 34.3401 52.2816 34.2093 52.5871 34.0349C52.8926 33.8605 53.1108 33.163 53.0235 32.4219C52.8926 31.2012 52.718 31.0704 51.0598 30.9832L49.2269 30.8089L49.1833 32.5963ZM49.1833 39.7895C49.1396 41.7513 49.1833 41.7949 50.5797 41.7949C51.3652 41.7949 52.3689 41.5769 52.8053 41.2717C53.329 40.8794 53.5472 40.269 53.4599 39.3971C53.329 38.1765 53.1544 38.0893 51.2779 37.9585L49.2269 37.8277L49.1833 39.7895ZM65.286 32.2039C65.8969 32.1603 67.0316 32.3783 67.8171 32.5963C68.6898 32.9014 69.4753 33.5554 69.8681 34.3401C70.2172 35.0812 70.5227 36.4326 70.5227 39.1356H66.8134C64.1514 39.1356 63.1041 39.3099 63.1041 39.7023C63.1041 40.0075 63.4532 40.705 63.8459 41.3153C64.5878 42.2744 64.8496 42.318 69.6499 41.7513V43.0591C69.6499 43.8003 69.3881 44.4978 69.1262 44.6722C68.8207 44.8465 67.4679 45.0645 66.1588 45.1517C64.5005 45.3261 63.2786 45.1517 62.2313 44.6722C61.4021 44.2798 60.3548 43.3643 59.9621 42.6668C59.482 41.8385 59.1766 40.3998 59.1766 38.8304C59.1766 36.9122 59.3948 35.9531 60.1803 34.776C60.7476 33.9041 61.7949 33.0758 62.6677 32.7706C63.4968 32.4655 64.6751 32.2039 65.286 32.2039ZM63.4532 36.3455C63.4968 36.7378 64.0641 36.9558 64.9805 36.9558C65.8097 36.9558 66.5515 36.825 66.7261 36.6506C66.857 36.4762 66.9006 36.0839 66.8134 35.7787C66.6824 35.4736 66.1588 35.2556 65.6351 35.2556C65.0678 35.2992 64.3696 35.3864 64.0205 35.5171C63.6714 35.6479 63.4095 36.0403 63.4532 36.3455ZM75.2357 32.2475C75.9339 32.2039 76.1957 32.4219 76.1957 33.0322C76.1957 33.9041 76.1957 33.9041 77.6358 33.0758C78.3776 32.5963 79.2941 32.2039 79.5995 32.2039C79.9486 32.2039 80.0796 32.727 80.0359 33.7733C79.905 35.212 79.7741 35.3864 78.5958 35.5607C77.8976 35.6043 77.0248 35.7787 76.763 35.9095C76.3703 36.0403 76.1957 37.3917 76.1957 44.803H72.2682V38.6996C72.2682 32.727 72.2682 32.5963 73.2719 32.4655C73.7956 32.3783 74.6683 32.2911 75.2357 32.2475ZM86.669 32.2039C87.28 32.2039 88.4146 32.3783 89.2001 32.5963C90.0728 32.9014 90.8583 33.5554 91.2511 34.3401C91.6002 35.0812 91.9057 36.4326 91.9057 39.1356H88.1964C85.5344 39.1356 84.4871 39.3099 84.4871 39.7023C84.4871 40.0075 84.8362 40.705 85.2289 41.3153C85.9708 42.2744 86.2326 42.318 91.0329 41.7513V44.803L88.5455 45.1081C87.149 45.2389 85.3162 45.1517 84.4871 44.8901C83.6579 44.6286 82.4797 43.931 81.8687 43.2771C81.0832 42.4488 80.7341 41.5333 80.6032 39.8767C80.5159 38.656 80.6905 36.9122 80.9523 35.9967C81.2142 35.0812 81.956 33.9913 82.6542 33.5554C83.3088 33.0758 84.2252 32.6399 84.7053 32.5091C85.1853 32.3783 86.0581 32.2475 86.669 32.2039ZM84.8362 36.607C84.8798 36.825 85.709 36.9558 86.669 36.9558C88.0218 36.9558 88.3709 36.825 88.1964 36.3019C88.0655 35.9531 87.9782 35.5607 87.9782 35.43C87.9782 35.3428 87.5418 35.212 86.9745 35.212C86.4072 35.212 85.709 35.4736 85.3599 35.7351C85.0107 36.0403 84.7925 36.4326 84.8362 36.607ZM96.8369 32.2475C97.2296 32.2039 97.5787 32.4655 97.5787 32.8142C97.5787 33.2066 97.6224 33.5118 97.7096 33.5118C97.7533 33.5118 98.5824 33.2066 99.4988 32.8142C100.546 32.3783 101.768 32.2039 102.641 32.3783C103.557 32.5091 104.474 33.0758 104.997 33.8169C105.783 34.8632 105.914 35.6479 105.87 44.803H101.943L101.724 35.43L100.284 35.2992C99.5425 35.2556 98.5824 35.43 98.1897 35.7351C97.7096 36.2147 97.5351 37.261 97.5787 44.803H93.6512V32.5963L94.8731 32.4655C95.5277 32.3783 96.4005 32.2911 96.8369 32.2475ZM112.198 32.2475C112.678 32.2039 113.812 32.3347 114.729 32.5091C116.212 32.8142 116.343 32.945 116.343 34.2529C116.343 35.6043 116.3 35.6479 114.947 35.43C114.161 35.2556 113.245 35.0812 112.983 34.994C112.678 34.8632 112.11 34.9068 111.761 34.994C111.412 35.1248 111.107 35.43 111.107 35.6479C111.107 35.9095 112.023 36.5198 113.201 36.9994C114.336 37.5225 115.689 38.3508 116.256 38.874C116.867 39.4407 117.216 40.3126 117.216 41.0974C117.216 41.8385 116.911 42.8848 116.562 43.4079C116.212 43.931 115.165 44.6286 114.292 44.8901C113.332 45.1517 111.543 45.2389 107.616 44.803V43.2771C107.616 42.0564 107.747 41.7949 108.401 41.9693C108.794 42.0564 109.841 42.2308 110.67 42.4052C111.674 42.5796 112.503 42.4488 113.07 42.0564C113.9 41.4461 113.9 41.4025 112.416 40.5306C111.587 40.0075 110.714 39.6151 110.452 39.6151C110.234 39.6151 109.492 39.1356 108.838 38.5252C107.965 37.6969 107.616 36.9994 107.616 35.8659C107.616 34.9068 107.921 34.0785 108.488 33.599C108.968 33.163 109.841 32.727 110.365 32.5527C110.889 32.3783 111.718 32.2475 112.198 32.2475ZM124.853 32.2475C125.595 32.2039 126.86 32.5091 127.689 32.945C128.562 33.381 129.566 34.3401 130.002 35.212C130.395 36.0839 130.744 37.6533 130.744 38.6996C130.744 39.7895 130.395 41.3589 130.002 42.1872C129.566 43.1027 128.562 44.0618 127.689 44.4978C126.86 44.9337 125.508 45.2389 124.766 45.2389C123.98 45.2389 122.627 44.9773 121.798 44.585C120.707 44.149 120.009 43.4079 119.398 42.1C118.918 41.0974 118.525 39.6151 118.525 38.8304C118.525 38.0457 118.831 36.6942 119.18 35.7787C119.529 34.8632 120.227 33.8169 120.795 33.4246C121.362 33.0322 122.191 32.6399 122.671 32.5091C123.151 32.3783 124.155 32.2475 124.853 32.2475ZM122.758 40.2254C123.107 41.8821 123.238 41.9693 124.635 41.9693C126.075 41.9693 126.206 41.8821 126.555 40.2254C126.817 39.1792 126.817 37.9149 126.555 36.9558C126.206 35.6915 125.944 35.43 124.809 35.2992C123.544 35.212 123.369 35.3428 122.889 36.825C122.496 37.9585 122.453 39.0484 122.758 40.2254ZM135.457 32.2475C136.025 32.2039 136.417 32.4219 136.417 32.8142C136.417 33.2066 136.505 33.4682 136.635 33.4682C136.766 33.4682 137.508 33.163 138.337 32.7706C139.297 32.2911 140.301 32.1603 141.392 32.3347C142.308 32.5091 143.225 33.0322 143.618 33.599C144.098 34.2965 144.272 35.7351 144.272 42.6232H148.112C150.6 42.6232 152.127 42.4488 152.476 42.1C152.913 41.6641 153 41.8821 153 44.803H140.781V41.0974C140.781 39.092 140.607 36.9122 140.345 36.3019C140.039 35.5607 139.559 35.212 138.817 35.212C138.206 35.212 137.421 35.3428 137.072 35.43C136.548 35.6479 136.417 36.5634 136.417 44.803H132.49V38.6996C132.49 32.727 132.49 32.5963 133.493 32.4655C134.017 32.3783 134.89 32.2911 135.457 32.2475Z" fill="#B39F93"/>
</svg>
