<svg width="176" height="76" viewBox="0 0 176 76" fill="none" xmlns="http://www.w3.org/2000/svg">
<path fill-rule="evenodd" clip-rule="evenodd" d="M117.208 17.0028C118.961 16.9792 119.719 17.0975 121.093 17.5707C122.041 17.9019 123.391 18.517 124.102 18.9429C124.789 19.3451 125.926 20.3151 126.636 21.0722C127.371 21.8293 128.271 23.1541 128.745 24.1478C129.195 25.0705 129.692 26.49 129.834 27.2708C129.976 28.0515 130.047 29.5184 129.976 30.583C129.905 31.624 129.621 33.0672 129.384 33.777C129.124 34.4867 128.602 35.5987 128.247 36.2612C127.868 36.8999 126.92 38.0356 126.139 38.7926C125.286 39.6444 124.078 40.4961 123.059 40.9929C122.135 41.4424 120.927 41.9156 120.335 42.0339C119.743 42.1759 118.416 42.2942 117.374 42.2942C116.332 42.2942 114.839 42.1285 114.058 41.9156C113.276 41.7263 112.02 41.2059 111.239 40.8036C110.481 40.3778 109.343 39.5734 108.728 38.9819C108.135 38.3904 107.235 37.3258 106.761 36.616C106.288 35.9063 105.672 34.676 105.387 33.8953C105.08 33.0435 104.819 31.6713 104.748 30.4647C104.701 29.3528 104.772 27.8623 104.914 27.1525C105.056 26.4427 105.53 25.1178 105.956 24.1951C106.406 23.2724 107.33 21.9239 108.064 21.1195C108.799 20.3387 110.007 19.3214 110.765 18.8719C111.547 18.4224 112.802 17.8072 113.584 17.5233C114.626 17.1685 115.597 17.0265 117.184 17.0028H117.208ZM117.635 19.9602C117.706 21.0012 117.753 22.2315 117.753 22.7283V23.6037L122.491 19.4634C120.738 18.659 119.624 18.3514 118.866 18.2568L117.492 18.0912L117.635 19.9602ZM110.931 20.1258C110.386 20.4807 109.983 20.8119 110.007 20.8356C110.054 20.8829 111.168 21.9002 112.494 23.0832L114.934 25.2598C114.934 21.6873 114.958 20.1495 115.005 19.5343C115.1 18.588 115.052 18.3987 114.721 18.4224C114.508 18.446 113.797 18.6826 113.134 18.9665C112.47 19.2268 111.475 19.7709 110.931 20.1258ZM118.203 26.0878C117.871 26.49 117.824 26.9159 117.966 29.0215L118.132 31.4821C126.257 23.8639 126.518 23.58 126.257 23.0832C126.091 22.7756 125.428 21.9712 124.765 21.2851C124.125 20.599 123.509 20.0548 123.462 20.0548C123.391 20.0548 122.254 21.3088 120.975 22.8229C119.672 24.3607 118.416 25.8039 118.203 26.0878ZM106.832 24.9049C106.453 25.6856 106.169 26.4664 106.169 26.632C106.169 26.8449 106.288 26.8686 106.69 26.6557C106.998 26.5137 107.591 26.3954 108.064 26.3954C108.514 26.3717 109.225 26.5847 109.651 26.8213C110.078 27.0815 110.552 27.531 110.717 27.8386C110.883 28.1462 111.002 28.785 111.002 29.2581C111.002 29.7313 110.931 30.3701 110.836 30.7013C110.67 31.2218 110.86 31.4584 112.447 32.7833C113.418 33.5877 114.271 34.2265 114.342 34.2028C114.389 34.1555 114.508 32.7596 114.602 31.0562L114.745 27.9806C110.481 23.1305 109.201 21.711 109.154 21.711C109.083 21.711 108.704 22.1132 108.278 22.61C107.851 23.0832 107.188 24.1242 106.832 24.9049ZM118.227 34.8416L118.25 38.9819C119.814 38.769 120.904 38.4141 121.685 38.0592C122.491 37.7043 123.699 36.8763 124.481 36.1429C125.239 35.4331 126.091 34.4158 126.376 33.8953C126.684 33.3748 127.086 32.4284 127.323 31.766C127.56 31.0799 127.726 29.8733 127.726 28.8796C127.726 27.9332 127.584 26.6557 127.418 26.0642C127.252 25.4491 127.063 24.9286 126.968 24.9049C126.897 24.8576 124.907 27.0815 122.538 29.8259L118.227 34.8416ZM106.525 28.3828C106.311 28.6903 106.146 29.1635 106.146 29.4711C106.146 29.755 106.406 30.2755 106.738 30.583C107.117 30.9852 107.614 31.1745 108.112 31.1982C108.609 31.1982 109.059 31.0089 109.415 30.654C109.723 30.3464 109.936 29.8259 109.936 29.4001C109.936 29.0215 109.794 28.5247 109.628 28.3118C109.486 28.1225 109.107 27.8149 108.822 27.673C108.514 27.531 108.206 27.4127 108.112 27.4127C108.017 27.4127 107.709 27.5074 107.425 27.6257C107.14 27.744 106.738 28.0752 106.525 28.3828ZM105.838 32.1918C105.909 32.6177 106.193 33.5404 106.477 34.2501C106.738 34.9836 107.377 36.1902 107.922 36.9709C108.443 37.7517 109.462 38.84 110.173 39.3841C110.883 39.9283 112.044 40.638 112.731 40.9219C113.418 41.2295 114.01 41.4188 114.058 41.3478C114.105 41.3005 114.2 40.3541 114.247 39.2895L114.318 37.3258C109.983 32.2155 109.651 31.9316 109.225 32.1209C108.964 32.2628 108.42 32.3574 107.993 32.3574C107.567 32.3574 106.88 32.1445 106.453 31.9079L105.672 31.4347L105.838 32.1918Z" fill="#B39F93"/>
<path fill-rule="evenodd" clip-rule="evenodd" d="M21.9086 47.5228C21.3875 47.6647 20.6768 47.9723 20.2978 48.2325C19.9425 48.4691 19.6108 48.6821 19.5398 48.6821C19.4687 48.6821 19.4213 48.4218 19.4213 48.0906C19.4213 47.5937 19.3029 47.4991 18.7107 47.4991H18V59.3285H19.4213C19.4213 56.2056 19.4924 55.3302 19.6108 55.3775C19.7056 55.4248 20.3215 55.6851 20.9611 55.9926C21.9086 56.4422 22.4535 56.5368 23.709 56.4658C24.9171 56.3948 25.4619 56.2292 26.1963 55.7324C26.7411 55.3775 27.3096 54.6914 27.5939 54.0763C27.9019 53.4375 28.0677 52.5858 28.0677 51.734C28.0677 50.6221 27.9492 50.1962 27.357 49.3682C26.978 48.824 26.2673 48.1852 25.8173 47.9486C25.3672 47.712 24.5144 47.4755 23.9222 47.4045C23.3299 47.3572 22.4298 47.4045 21.9086 47.5228ZM20.8426 49.4391C21.5533 49.0133 22.4061 48.6821 22.7377 48.6821C23.0694 48.6821 23.709 48.753 24.1591 48.8477C24.6091 48.9423 25.3198 49.3445 25.6988 49.7467C26.1015 50.1252 26.5042 50.8114 26.599 51.2372C26.6937 51.6394 26.6937 52.3255 26.5753 52.7514C26.4805 53.1772 26.1489 53.7924 25.8173 54.1472C25.4856 54.4785 24.775 54.9043 24.2064 55.0463C23.4958 55.2356 22.9036 55.2356 22.0981 55.0463C21.4585 54.9043 20.6058 54.5494 20.203 54.2182C19.445 53.6504 19.4213 53.6268 19.5398 50.2199L20.8426 49.4391ZM151.959 47.5228C151.438 47.6411 150.704 47.9723 150.349 48.2562C149.946 48.5874 149.638 49.1079 149.543 49.6284C149.425 50.3145 149.519 50.5748 150.088 51.2136C150.657 51.8523 151.083 52.0653 152.433 52.3492C153.357 52.5384 154.328 52.6804 154.636 52.6804C154.92 52.7041 155.489 52.846 155.868 53.0589C156.294 53.2719 156.579 53.5794 156.579 53.887C156.579 54.1472 156.342 54.5021 156.034 54.6914C155.75 54.857 155.181 55.0936 154.802 55.1646C154.423 55.2592 153.547 55.2119 152.907 55.0699C152.244 54.928 151.343 54.5021 150.893 54.1236L150.064 53.4375L148.998 54.4785C149.827 55.2829 150.538 55.7324 151.13 55.9926C151.865 56.3239 152.694 56.4658 153.783 56.4658C154.684 56.4895 155.75 56.3239 156.152 56.1582C156.579 55.969 157.171 55.5904 157.455 55.3302C157.818 54.999 158 54.5573 158 54.0053C158 53.5321 157.882 52.9643 157.763 52.7041C157.645 52.4438 157.242 52.0653 156.863 51.8997C156.508 51.7104 155.205 51.3792 153.973 51.1662C152.741 50.9533 151.58 50.6457 151.415 50.4801C151.249 50.3382 151.107 50.0306 151.13 49.794C151.13 49.5811 151.415 49.2025 151.77 48.9896C152.244 48.7057 152.788 48.6111 153.76 48.6821C154.778 48.7767 155.276 48.966 155.963 49.5101L156.863 50.2199C157.834 49.2262 157.834 49.1316 157.526 48.7767C157.337 48.5874 156.744 48.2089 156.223 47.9723C155.702 47.7357 154.731 47.4991 154.091 47.4281C153.428 47.3572 152.481 47.4045 151.959 47.5228Z" fill="#B39F93"/>
<path fill-rule="evenodd" clip-rule="evenodd" d="M34.3454 27.8623C36.4537 27.8623 37.188 27.9333 37.188 28.1699C37.2117 28.3118 36.8801 28.6194 36.4774 28.8087C36.0747 28.9979 35.743 29.2109 35.7667 29.2818C35.7667 29.3528 36.3352 31.1036 36.9985 33.1855C37.6855 35.2675 38.2777 37.0183 38.3014 37.0893C38.3488 37.1602 38.4198 37.1602 38.4909 37.0893C38.562 37.0183 39.2963 35.1019 40.1728 32.8307C41.0256 30.5594 41.831 28.5011 41.9494 28.2645C42.0679 28.0516 42.3758 27.8623 42.6364 27.8623C43.0391 27.8623 43.2997 28.4065 44.2709 31.2455C44.9105 33.0909 45.6212 35.2202 45.8581 35.9536C46.1187 36.7107 46.3792 37.2312 46.474 37.1366C46.545 37.0419 47.2083 35.2912 47.9427 33.2565C48.677 31.1982 49.2692 29.4474 49.2692 29.3292C49.2929 29.2345 48.9613 28.9979 48.5586 28.8087C48.1559 28.6194 47.8242 28.3118 47.8479 28.1699C47.8479 27.9333 48.4638 27.8623 50.0984 27.8623C51.7329 27.8623 52.3488 27.9333 52.3488 28.1699C52.3488 28.3118 52.0171 28.6194 51.6144 28.8087C50.9748 29.1162 50.7379 29.5657 49.6009 32.4758C48.8902 34.2975 47.8005 37.0419 47.1846 38.5798C46.2371 40.9693 46.0002 41.3715 45.5975 41.3005C45.2185 41.2532 44.8395 40.4015 43.584 36.7817C42.7312 34.3212 41.9258 32.3575 41.8073 32.3811C41.6889 32.4048 40.8124 34.4158 39.9122 36.829C38.5857 40.3542 38.1593 41.2532 37.7802 41.3005C37.3538 41.3715 37.117 40.8747 35.8141 37.1602C35.0087 34.8417 34.0374 32.1209 33.6821 31.0799C33.1373 29.5184 32.9241 29.1635 32.2608 28.8323C31.8344 28.6194 31.5027 28.3118 31.5027 28.1699C31.5027 27.9333 32.2371 27.8623 34.3454 27.8623ZM73.029 29.0452C73.3606 29.0452 73.4317 29.2582 73.4317 31.4111L74.9004 31.4821C76.2033 31.5294 76.3928 31.5767 76.3928 32.0026C76.3928 32.4285 76.2033 32.4758 73.4317 32.5941V35.9773C73.408 38.84 73.4791 39.3842 73.8107 39.6917C74.0476 39.9047 74.6872 40.0466 75.3742 40.0466C76.298 40.0466 76.5112 40.1176 76.5112 40.4725C76.5112 40.78 76.1796 40.922 74.9004 41.1349C74.0239 41.2769 72.9816 41.3242 72.6026 41.2532C72.1999 41.1822 71.6787 40.8983 71.4181 40.6144C70.9918 40.1649 70.9444 39.739 70.8259 32.5941H70.1153C69.5941 32.5941 69.4046 32.4758 69.4046 32.1919C69.4046 31.908 69.7599 31.6241 70.3758 31.3875C71.0154 31.1272 71.5603 30.654 71.963 30.0153C72.3183 29.4948 72.7921 29.0689 73.0053 29.0452H73.029ZM55.7363 31.4584C56.6364 31.5058 57.2997 31.695 57.7498 32.0263C58.1051 32.3102 58.5789 32.8307 58.7921 33.2092C59.0053 33.5877 59.2659 34.3921 59.4791 36.1429H56.3995C53.4858 36.1429 53.32 36.1666 53.32 36.6161C53.32 36.8763 53.5095 37.5388 53.7227 38.0593C53.9596 38.6034 54.4571 39.2422 54.8598 39.4788C55.3572 39.7864 56.0205 39.9283 56.9918 39.952C57.7735 39.952 58.5552 39.9283 58.7447 39.881C58.9342 39.8337 59.1237 39.9993 59.1711 40.2359C59.2185 40.5671 58.9105 40.7091 57.3945 41.0166C56.3285 41.2532 55.1203 41.3478 54.5044 41.2769C53.9122 41.1822 53.0594 40.8747 52.6093 40.5671C52.1593 40.2595 51.567 39.5971 51.3302 39.0766C50.9985 38.4378 50.8564 37.6334 50.8564 36.4741C50.8327 34.96 50.9038 34.6997 51.6381 33.6587C52.0645 33.0199 52.8699 32.2629 53.4148 31.9553C54.1965 31.4821 54.6466 31.3875 55.7363 31.4584ZM53.5569 34.0136C53.4385 34.4631 53.32 34.96 53.32 35.0783C53.32 35.2202 53.8175 35.2912 54.4571 35.2439C55.073 35.2202 55.831 35.1256 56.1626 35.0546C56.7075 34.9363 56.7549 34.8653 56.589 33.9426C56.4706 33.3985 56.2574 32.807 56.1153 32.6414C55.9495 32.4758 55.5231 32.3338 55.1914 32.3575C54.8598 32.3575 54.4097 32.5468 54.1965 32.7833C53.9833 32.9963 53.699 33.5641 53.5569 34.0136ZM65.4012 31.5058C66.254 31.5767 67.1305 31.6714 67.3437 31.7424C67.6753 31.8607 67.7701 32.1446 67.7701 32.949C67.7701 33.9426 67.7227 34.0136 67.1068 34.0136C66.6093 34.0136 66.3488 33.8243 65.9934 33.1855C65.6381 32.5231 65.3775 32.3338 64.8564 32.3575C64.4537 32.3575 64.0984 32.5468 63.8852 32.9016C63.6956 33.1855 63.6246 33.6114 63.6956 33.8717C63.7904 34.1082 64.5484 34.7234 65.4012 35.1965C66.254 35.6934 67.1305 36.2849 67.3437 36.5214C67.5806 36.7817 67.8412 37.3495 67.9122 37.799C68.007 38.3195 67.9122 38.9583 67.6753 39.5261C67.3911 40.1886 67.0357 40.5198 66.1593 40.8983C65.2591 41.3242 64.809 41.3715 63.743 41.2532C63.0324 41.1586 62.2033 41.0403 61.8953 40.993C61.4452 40.8983 61.3742 40.7327 61.3742 39.6917C61.3742 38.5324 61.3978 38.5088 62.0848 38.5088C62.677 38.5088 62.8665 38.6744 63.2692 39.4551C63.6009 40.1413 63.8852 40.4015 64.2642 40.4015C64.5721 40.4015 65.0459 40.2359 65.3302 40.0466C65.6934 39.81 65.875 39.4551 65.875 38.982C65.875 38.3432 65.6855 38.1539 64.1457 37.2312C63.2219 36.6397 62.2269 35.9536 61.9664 35.6697C61.6584 35.3148 61.4926 34.818 61.4926 34.1319C61.4926 33.5641 61.6584 32.878 61.8716 32.5704C62.0611 32.2865 62.606 31.8843 63.056 31.7187C63.5535 31.5058 64.43 31.4348 65.4012 31.5058ZM82.5755 31.4348C83.4046 31.4111 84.1153 31.5767 84.9444 32.0026C85.6313 32.3338 86.3657 32.949 86.721 33.4695C87.1474 34.0846 87.3369 34.747 87.408 35.7644C87.4554 36.5924 87.3606 37.6098 87.1711 38.1539C87.0053 38.6744 86.5789 39.4078 86.2473 39.7864C85.9156 40.1649 85.2286 40.6854 84.7075 40.8983C84.1627 41.1586 83.1914 41.3478 82.386 41.3478C81.6517 41.3478 80.633 41.1822 80.1356 40.9693C79.6618 40.78 79.0696 40.4252 78.809 40.2122C78.5721 39.9993 78.1694 39.3842 77.9088 38.8637C77.6009 38.2485 77.4351 37.4441 77.4351 36.6161C77.4114 35.859 77.6009 34.8653 77.8852 34.2502C78.122 33.6587 78.7143 32.9016 79.1643 32.5468C79.5907 32.1919 80.3014 31.7897 80.6804 31.6714C81.0594 31.5531 81.9122 31.4348 82.5755 31.4348ZM80.9884 33.1619C80.7752 33.4458 80.4672 34.1319 80.3251 34.7234C80.183 35.3148 80.1119 36.3558 80.2066 37.0893C80.2777 37.799 80.562 38.7454 80.8225 39.1712C81.0594 39.5734 81.5332 40.0466 81.8648 40.1649C82.2202 40.3069 82.6703 40.3305 82.9782 40.1886C83.2862 40.0703 83.7126 39.7864 83.9258 39.5498C84.1627 39.2895 84.4469 38.5798 84.5654 37.9173C84.7312 37.1366 84.7312 36.2375 84.5654 35.3148C84.4469 34.5341 84.1863 33.6587 83.9968 33.3748C83.8073 33.0673 83.3809 32.736 83.0493 32.5941C82.7176 32.4758 82.386 32.3575 82.2676 32.3811C82.1728 32.3811 81.9359 32.4521 81.7464 32.5231C81.5569 32.6177 81.2016 32.9016 80.9884 33.1619ZM92.2168 31.4348C92.7379 31.4111 92.8801 31.5294 92.8801 31.8843C92.8801 32.3575 92.8801 32.3575 94.2303 31.8843C94.9884 31.6241 95.8412 31.4111 96.1254 31.4111C96.4334 31.4111 96.9545 31.5531 97.2862 31.7187C97.6415 31.8607 98.0679 32.3102 98.2811 32.7124C98.5417 33.2092 98.6838 34.4158 98.9207 39.9993L99.6787 40.3305C100.105 40.4961 100.46 40.7564 100.46 40.8747C100.46 41.0166 99.3945 41.1113 97.7363 41.1113C96.0781 41.1113 95.0121 41.0166 95.0121 40.8747C95.0121 40.7564 95.2726 40.4725 95.6043 40.2832C96.1965 39.9283 96.1965 39.881 96.1965 36.9236C96.1965 35.2439 96.1017 33.777 96.007 33.6114C95.9122 33.4695 95.5095 33.2329 95.1305 33.0673C94.7515 32.9253 94.0645 32.878 92.8801 33.0673V39.9283L93.5907 40.2832C93.9698 40.4725 94.3014 40.7564 94.3014 40.8747C94.3014 41.0166 93.188 41.1113 91.4588 41.1113C89.7295 41.1113 88.6161 41.0166 88.6161 40.8747C88.6161 40.7564 89.0425 40.4725 90.5112 39.9283V33.0673L89.5637 32.7833C89.0425 32.6177 88.6398 32.3575 88.6872 32.2392C88.7346 32.1209 89.3979 31.8843 90.1796 31.7424C90.9376 31.5767 91.8615 31.4585 92.2168 31.4348Z" fill="#B39F93"/>
<path fill-rule="evenodd" clip-rule="evenodd" d="M64.9742 44.2342C65.6612 44.3052 65.7322 44.3762 65.7322 45.1333C65.7322 45.914 65.6848 45.9613 64.9031 45.9613C64.1925 45.9613 64.074 45.8667 64.0029 45.3698C63.9556 45.0386 64.0029 44.6364 64.074 44.4708C64.1451 44.2815 64.5241 44.1869 64.9742 44.2342ZM146.155 44.1869H147.577V56.2529L146.937 56.2056C146.439 56.1583 146.25 55.9927 146.155 55.07L145.16 55.7324C144.355 56.2529 143.857 56.3949 142.507 56.4422C141.11 56.5132 140.636 56.4185 139.759 55.969C138.93 55.5432 138.551 55.141 138.03 54.1236C137.485 53.059 137.367 52.6095 137.461 51.6394C137.533 50.9297 137.817 50.0543 138.196 49.4628C138.575 48.824 139.191 48.2562 139.83 47.9487C140.541 47.5701 141.275 47.4282 142.365 47.4282C143.621 47.4045 144.118 47.5228 146.155 48.6821V44.1869ZM139.428 50.1726C139.096 50.5984 138.93 51.2136 138.93 51.8524C138.93 52.4202 139.096 53.1536 139.286 53.5085C139.475 53.8634 139.901 54.3366 140.233 54.5258C140.565 54.7388 141.204 54.999 141.654 55.0936C142.104 55.2119 142.91 55.1883 143.431 55.0463C143.952 54.928 144.781 54.5022 145.279 54.1236C146.132 53.4375 146.155 53.3665 146.155 51.947C146.155 50.6931 146.084 50.3619 145.634 49.936C145.326 49.6521 144.687 49.2499 144.213 49.0606C143.715 48.8477 142.91 48.6821 142.436 48.6821C141.939 48.6821 141.181 48.8714 140.731 49.1079C140.28 49.3209 139.688 49.8177 139.428 50.1726ZM34.937 47.3335C35.2923 47.3572 35.4344 47.5701 35.4818 48.1616C35.5292 48.9187 35.5292 48.9187 34.4395 48.9187C33.4683 48.9187 33.2077 49.037 31.2889 50.9297L31.2652 56.2529H29.8439V47.4991H30.5546C31.2178 47.4991 31.2652 47.5465 31.2652 49.2736L31.9048 48.6111C32.2838 48.2562 32.9945 47.8067 33.5156 47.6174C34.0368 47.4282 34.6764 47.3099 34.937 47.3335ZM41.9251 47.4518C42.5173 47.5228 43.3701 47.7594 43.8202 47.9723C44.2703 48.2089 44.8388 48.5874 45.052 48.824C45.2652 49.0843 45.6205 49.6758 45.8101 50.1726C46.0233 50.6458 46.1891 51.3082 46.1891 52.2309H42.0436C39.4378 52.2309 37.898 52.3256 37.898 52.4675C37.898 52.6095 38.0639 53.0117 38.2534 53.4139C38.4429 53.8161 38.964 54.3602 39.3904 54.6441C39.9353 55.0227 40.5038 55.1646 41.4513 55.1646C42.3752 55.1646 43.0148 54.999 43.6544 54.6441C44.1282 54.3602 44.5309 54.029 44.5309 53.887C44.5309 53.7451 44.673 53.6504 44.8388 53.6504C44.981 53.6268 45.3126 53.8161 45.5258 54.0526C45.9285 54.4548 45.9285 54.5022 45.2889 55.1173C44.9336 55.4722 44.2466 55.9217 43.7728 56.111C43.2754 56.3239 42.2331 56.4895 41.4513 56.4895C40.6696 56.4895 39.6273 56.3239 39.1535 56.111C38.6561 55.9217 37.9454 55.4722 37.5901 55.1173C37.1874 54.7388 36.7847 53.9344 36.5478 53.1773C36.2635 52.1363 36.2398 51.6631 36.453 50.8587C36.5952 50.3145 36.9031 49.5811 37.14 49.2499C37.3532 48.9187 37.9217 48.3982 38.3718 48.1379C38.8219 47.854 39.5799 47.5701 40.03 47.4755C40.4801 47.4045 41.3329 47.3808 41.9251 47.4518ZM38.206 50.3382L37.9217 50.9297C42.849 51.0243 44.365 51.0007 44.4598 50.9297C44.5782 50.8587 44.4361 50.5038 44.1518 50.1489C43.8913 49.7941 43.2991 49.3209 42.849 49.1079C42.3989 48.8714 41.6172 48.6821 41.0723 48.6821C40.4564 48.6821 39.8168 48.8714 39.2957 49.2262C38.8456 49.5338 38.3718 50.0306 38.206 50.3382ZM52.4666 47.2862C52.6087 47.2626 53.0825 47.3808 53.5326 47.4991C53.9826 47.6411 54.5985 47.9487 54.9065 48.2089C55.4277 48.6821 55.4277 48.6821 56.4463 48.1143C56.9911 47.8067 57.7728 47.4755 58.1518 47.3808C58.5546 47.3099 59.2889 47.3335 59.8101 47.4755C60.3312 47.5938 61.0182 47.996 61.3498 48.3272C61.9183 48.9423 61.942 49.0843 62.0605 56.2529H60.4023V52.8224C60.4023 49.4628 60.4023 49.3918 59.8337 49.0133C59.4073 48.7294 58.981 48.6584 58.2229 48.7767C57.6544 48.8477 56.849 49.1789 55.6645 50.1016V56.2529H54.2432L54.1958 52.917C54.1248 49.6758 54.1011 49.5811 53.5326 49.1316C53.2009 48.8714 52.6324 48.6584 52.2297 48.6584C51.8507 48.6821 51.0216 48.9897 49.2686 50.1016V56.2529H47.8473V47.4991H48.5579C49.1502 47.4991 49.2686 47.5938 49.2686 48.6821L49.9319 48.2326C50.2872 47.996 50.9505 47.6648 51.4006 47.5465C51.8507 47.4045 52.3481 47.2862 52.4666 47.2862ZM83.2618 47.2862C83.404 47.2626 83.8777 47.3808 84.3278 47.4991C84.7779 47.6411 85.3938 47.9487 86.2229 48.6821L87.36 48.0433C88.1654 47.5701 88.805 47.3808 89.7051 47.3808C90.5816 47.3808 91.1028 47.5228 91.6002 47.8777C91.9556 48.1379 92.4056 48.6348 92.5478 48.9423C92.7373 49.3209 92.8557 50.6694 92.8557 56.2529H91.1975V52.8224C91.1975 49.5338 91.1738 49.3682 90.6764 49.037C90.3684 48.8477 89.8473 48.6821 89.4919 48.6821C89.1129 48.6821 88.4733 48.8477 88.0706 49.0606C87.6442 49.2736 87.0994 49.6284 86.8625 49.8414C86.5072 50.1726 86.4361 50.6458 86.4598 56.2529H85.0385V53.059C85.0385 49.9597 85.0148 49.8414 84.4463 49.2736C84.0672 48.895 83.5935 48.6821 83.096 48.6821C82.6222 48.6821 81.8642 48.966 80.0639 50.1016V56.2529H78.6425V47.4991H79.3532C79.9217 47.4991 80.0876 47.6174 80.3481 48.7531L80.8693 48.2562C81.1298 47.996 81.7458 47.6884 82.1958 47.5465C82.6459 47.4045 83.1434 47.2862 83.2618 47.2862ZM120.524 47.2862C120.666 47.2862 121.377 47.3808 122.064 47.5465C122.822 47.7121 123.604 48.0906 124.101 48.5401C124.551 48.9423 125.049 49.6284 125.238 50.0543C125.404 50.4565 125.546 51.3082 125.546 51.947C125.546 52.5621 125.333 53.4848 125.12 54.0053C124.883 54.5258 124.362 55.1883 123.983 55.4958C123.604 55.8034 122.869 56.1583 122.348 56.3002C121.827 56.4185 120.808 56.4895 120.098 56.4422C119.387 56.3712 118.368 56.111 117.871 55.8744C117.35 55.6378 116.687 55.0463 116.379 54.5968C116.071 54.1473 115.763 53.2482 115.692 52.5858C115.597 51.9233 115.644 51.048 115.786 50.5748C115.928 50.1253 116.26 49.4628 116.544 49.1079C116.805 48.7294 117.373 48.2562 117.8 48.0433C118.203 47.8304 118.937 47.5701 119.387 47.4755C119.837 47.3808 120.358 47.3099 120.524 47.2862ZM117.705 50.3619C117.326 50.9297 117.184 51.4738 117.208 52.1836C117.231 52.7277 117.445 53.4612 117.681 53.7924C117.895 54.1473 118.345 54.5495 118.676 54.7151C119.008 54.8807 119.648 55.0463 120.098 55.0936C120.548 55.1173 121.211 55.141 121.59 55.1173C121.945 55.0936 122.585 54.7387 123.035 54.3129C123.556 53.7924 123.888 53.2009 123.983 52.5858C124.101 51.947 124.03 51.3319 123.793 50.6931C123.533 50.0543 123.13 49.5811 122.538 49.2262C122.016 48.9187 121.235 48.7057 120.69 48.6821C120.169 48.6821 119.411 48.8714 118.984 49.1316C118.582 49.3682 118.013 49.936 117.705 50.3619ZM131.942 47.3808C132.534 47.4518 133.387 47.6411 133.837 47.8304C134.287 48.0196 134.95 48.4692 135.306 48.8477C135.661 49.2026 136.064 49.7941 136.182 50.1726C136.324 50.5275 136.443 51.3082 136.443 51.947C136.443 52.5621 136.23 53.4848 136.016 54.0053C135.78 54.5258 135.258 55.1883 134.879 55.4958C134.5 55.8034 133.766 56.1583 133.245 56.3002C132.724 56.4422 131.634 56.4658 130.758 56.3949C129.763 56.3002 128.934 56.0636 128.412 55.7088C127.986 55.4249 127.417 54.8807 127.181 54.4785C126.944 54.1 126.659 53.2482 126.588 52.5858C126.494 51.9233 126.541 51.048 126.683 50.5748C126.825 50.1253 127.157 49.4628 127.441 49.1079C127.702 48.7294 128.27 48.2562 128.697 48.0433C129.099 47.8304 129.786 47.5701 130.165 47.4755C130.544 47.3808 131.35 47.3335 131.942 47.3808ZM128.578 50.1963C128.247 50.6694 128.081 51.3082 128.081 51.9943C128.081 52.6331 128.27 53.3429 128.531 53.7451C128.768 54.1236 129.313 54.5731 129.692 54.7861C130.071 54.9753 130.947 55.1409 131.587 55.1646C132.511 55.1646 132.961 55.0227 133.671 54.5258C134.311 54.0526 134.619 53.6268 134.808 52.8934C134.951 52.3255 134.998 51.6158 134.927 51.2846C134.856 50.9533 134.571 50.4092 134.311 50.0543C134.05 49.6758 133.505 49.2262 133.126 49.037C132.747 48.8477 132.013 48.6821 131.539 48.6821C131.042 48.6821 130.284 48.8714 129.857 49.0843C129.431 49.2972 128.839 49.7941 128.578 50.1963ZM64.1925 47.4991H65.6138V56.2529H64.1925V47.4991ZM69.2855 47.6174L69.404 50.835C69.4987 53.6504 69.5935 54.1473 69.9962 54.5731C70.2568 54.857 70.7068 55.1173 71.0148 55.1883C71.2991 55.2592 71.9623 55.2119 72.4835 55.07C73.0046 54.928 73.7627 54.5731 74.8524 53.6504L74.9708 47.6174H76.3921L76.5106 56.2529H75.6815C75.0182 56.2529 74.8524 56.1583 74.8524 55.7797C74.8524 55.3302 74.805 55.3302 73.739 55.898C72.9809 56.3002 72.2229 56.4895 71.4886 56.4895C70.849 56.4895 69.9725 56.3239 69.5224 56.1346C69.0723 55.9454 68.5038 55.4958 68.2906 55.1409C67.959 54.6441 67.8405 53.8161 67.7458 51.3555C67.6984 49.6284 67.7221 48.0433 67.8168 47.854C67.9353 47.5938 68.2432 47.4991 69.2855 47.6174ZM100.72 47.5465C101.455 47.6174 101.502 47.6884 102.805 50.8824C103.516 52.6568 104.155 54.1236 104.226 54.1236C104.297 54.1236 104.89 52.6568 105.553 50.8587C106.666 47.854 106.808 47.6174 107.377 47.5701C107.898 47.4991 108.088 47.6411 108.372 48.2799C108.561 48.6821 109.177 50.2436 110.741 54.3839L112.115 50.9533C113.441 47.5701 113.489 47.4991 114.176 47.4991C114.578 47.4991 114.886 47.6174 114.886 47.8067C114.886 47.9487 114.104 49.936 113.157 52.1599C111.499 56.1346 111.428 56.2529 110.741 56.2529C110.03 56.2766 110.006 56.2056 107.472 49.5101L105.008 56.1346H104.25C103.492 56.1346 103.468 56.1346 101.881 52.3492C101.005 50.2672 100.199 48.3272 100.104 48.0196C99.9623 47.5228 100.01 47.4755 100.72 47.5465Z" fill="#B39F93"/>
</svg>
