<svg width="100" height="100" viewBox="0 0 100 100" fill="none" xmlns="http://www.w3.org/2000/svg">
<path d="M45.427 -0.00195312H28.1839C27.0979 -0.00195312 26.2176 0.878399 26.2176 1.96437V19.2075C26.2176 20.2935 27.0979 21.1738 28.1839 21.1738H45.427C46.513 21.1738 47.3934 20.2935 47.3934 19.2075V1.96437C47.3934 0.878399 46.513 -0.00195312 45.427 -0.00195312Z" fill="#B39F93"/>
<path d="M45.427 26.2151H28.1839C27.0979 26.2151 26.2176 27.0954 26.2176 28.1814V45.4245C26.2176 46.5105 27.0979 47.3909 28.1839 47.3909H45.427C46.513 47.3909 47.3934 46.5105 47.3934 45.4245V28.1814C47.3934 27.0954 46.513 26.2151 45.427 26.2151Z" fill="#B39F93"/>
<path d="M0 1.9648V45.4255C0 46.5115 0.880355 47.3918 1.96632 47.3918H19.2094C20.2954 47.3918 21.1758 46.5115 21.1758 45.4255V1.9648C21.1758 0.878832 20.2954 -0.00151872 19.2094 -0.00151872H1.96632C0.880355 -0.00151872 0 0.878832 0 1.9648Z" fill="#B39F93"/>
<path d="M99.9999 45.426V28.1829C99.9999 27.097 99.1196 26.2166 98.0336 26.2166H80.7905C79.7045 26.2166 78.8241 27.097 78.8241 28.1829V45.426C78.8241 46.512 79.7045 47.3924 80.7905 47.3924H98.0336C99.1196 47.3924 99.9999 46.512 99.9999 45.426Z" fill="#B39F93"/>
<path d="M99.9999 19.209V1.96586C99.9999 0.879887 99.1196 -0.000470769 98.0336 -0.000470769H80.7905C79.7045 -0.000470769 78.8241 0.879887 78.8241 1.96586V19.209C78.8241 20.2949 79.7045 21.1753 80.7905 21.1753H98.0336C99.1196 21.1753 99.9999 20.2949 99.9999 19.209Z" fill="#B39F93"/>
<path d="M73.7825 45.426V28.1829C73.7825 27.097 72.9021 26.2166 71.8162 26.2166H54.573C53.4871 26.2166 52.6067 27.097 52.6067 28.1829V45.426C52.6067 46.512 53.4871 47.3924 54.573 47.3924H71.8162C72.9021 47.3924 73.7825 46.512 73.7825 45.426Z" fill="#B39F93"/>
<path d="M73.7825 19.209V1.96585C73.7825 0.879884 72.9021 -0.000467964 71.8162 -0.000467964H54.573C53.4871 -0.000467964 52.6067 0.879884 52.6067 1.96585V19.209C52.6067 20.2949 53.4871 21.1753 54.573 21.1753H71.8162C72.9021 21.1753 73.7825 20.2949 73.7825 19.209Z" fill="#B39F93"/>
<path d="M47.3934 98.0334V80.7902C47.3934 79.7043 46.5131 78.8239 45.4271 78.8239H28.184C27.098 78.8239 26.2177 79.7043 26.2177 80.7902V98.0334C26.2177 99.1193 27.098 99.9997 28.184 99.9997H45.4271C46.5131 99.9997 47.3934 99.1193 47.3934 98.0334Z" fill="#B39F93"/>
<path d="M47.3934 71.8165V54.5734C47.3934 53.4874 46.5131 52.6071 45.4271 52.6071H28.184C27.098 52.6071 26.2177 53.4874 26.2177 54.5734V71.8165C26.2177 72.9025 27.098 73.7829 28.184 73.7829H45.4271C46.5131 73.7829 47.3934 72.9025 47.3934 71.8165Z" fill="#B39F93"/>
<path d="M21.1758 98.0334V80.7902C21.1758 79.7043 20.2955 78.8239 19.2095 78.8239H1.9664C0.880433 78.8239 7.52481e-05 79.7043 7.52481e-05 80.7902V98.0334C7.52481e-05 99.1193 0.880433 99.9997 1.9664 99.9997H19.2095C20.2955 99.9997 21.1758 99.1193 21.1758 98.0334Z" fill="#B39F93"/>
<path d="M21.1758 71.8165V54.5734C21.1758 53.4874 20.2955 52.6071 19.2095 52.6071H1.9664C0.880429 52.6071 7.66959e-05 53.4874 7.66959e-05 54.5734V71.8165C7.66959e-05 72.9025 0.880429 73.7829 1.9664 73.7829H19.2095C20.2955 73.7829 21.1758 72.9025 21.1758 71.8165Z" fill="#B39F93"/>
<path d="M98.0337 52.6056H80.7905C79.7046 52.6056 78.8242 53.486 78.8242 54.572V71.8151C78.8242 72.9011 79.7046 73.7814 80.7905 73.7814H98.0337C99.1196 73.7814 100 72.9011 100 71.8151V54.572C100 53.486 99.1196 52.6056 98.0337 52.6056Z" fill="#B39F93"/>
<path d="M98.0337 78.8224H80.7905C79.7046 78.8224 78.8242 79.7028 78.8242 80.7887V98.0318C78.8242 99.1178 79.7046 99.9982 80.7905 99.9982H98.0337C99.1196 99.9982 100 99.1178 100 98.0318V80.7887C100 79.7028 99.1196 78.8224 98.0337 78.8224Z" fill="#B39F93"/>
<path d="M52.6066 54.5726V98.0333C52.6066 99.1192 53.487 99.9996 54.573 99.9996H71.8161C72.9021 99.9996 73.7824 99.1192 73.7824 98.0333V54.5726C73.7824 53.4866 72.9021 52.6062 71.8161 52.6062H54.573C53.487 52.6062 52.6066 53.4866 52.6066 54.5726Z" fill="#B39F93"/>
</svg>
